<?xml version="1.0" encoding="UTF-8"?>
<svg id="Layer_1" data-name="Layer 1" xmlns="http://www.w3.org/2000/svg" xmlns:xlink="http://www.w3.org/1999/xlink" version="1.1" viewBox="0 0 1920 1080">
  <defs>
    <linearGradient id="New_Gradient_Swatch_2" data-name="New Gradient Swatch 2" x1="5375.4" y1="5674.7" x2="5785.7" y2="5674.7" gradientUnits="userSpaceOnUse">
      <stop offset="0" stop-color="#171b38"/>
      <stop offset=".8" stop-color="#009ade"/>
      <stop offset="1" stop-color="#80bc00"/>
    </linearGradient>
    <linearGradient id="New_Gradient_Swatch_2-2" data-name="New Gradient Swatch 2" y1="5855.7" y2="5855.7" gradientTransform="translate(0 136.6) scale(1 .9)" xlink:href="#New_Gradient_Swatch_2"/>
    <linearGradient id="New_Gradient_Swatch_2-3" data-name="New Gradient Swatch 2" y1="6059.4" y2="6059.4" gradientTransform="translate(0 273.2) scale(1 .9)" xlink:href="#New_Gradient_Swatch_2"/>
    <linearGradient id="New_Gradient_Swatch_2-4" data-name="New Gradient Swatch 2" y1="6290.2" y2="6290.2" gradientTransform="translate(0 409.8) scale(1 .8)" xlink:href="#New_Gradient_Swatch_2"/>
    <linearGradient id="New_Gradient_Swatch_2-5" data-name="New Gradient Swatch 2" y1="6553.9" y2="6553.9" gradientTransform="translate(0 546.5) scale(1 .8)" xlink:href="#New_Gradient_Swatch_2"/>
    <linearGradient id="New_Gradient_Swatch_2-6" data-name="New Gradient Swatch 2" y1="6858.3" y2="6858.3" gradientTransform="translate(0 683.1) scale(1 .7)" xlink:href="#New_Gradient_Swatch_2"/>
    <linearGradient id="New_Gradient_Swatch_2-7" data-name="New Gradient Swatch 2" y1="7213.3" y2="7213.3" gradientTransform="translate(0 819.7) scale(1 .7)" xlink:href="#New_Gradient_Swatch_2"/>
    <linearGradient id="New_Gradient_Swatch_2-8" data-name="New Gradient Swatch 2" y1="7633" y2="7633" gradientTransform="translate(0 956.3) scale(1 .6)" xlink:href="#New_Gradient_Swatch_2"/>
    <linearGradient id="New_Gradient_Swatch_2-9" data-name="New Gradient Swatch 2" y1="8136.5" y2="8136.5" gradientTransform="translate(0 1092.9) scale(1 .6)" xlink:href="#New_Gradient_Swatch_2"/>
    <linearGradient id="New_Gradient_Swatch_2-10" data-name="New Gradient Swatch 2" y1="8752" y2="8752" gradientTransform="translate(0 1229.5) scale(1 .5)" xlink:href="#New_Gradient_Swatch_2"/>
    <linearGradient id="New_Gradient_Swatch_2-11" data-name="New Gradient Swatch 2" y1="9521.3" y2="9521.3" gradientTransform="translate(0 1366.2) scale(1 .4)" xlink:href="#New_Gradient_Swatch_2"/>
    <linearGradient id="New_Gradient_Swatch_2-12" data-name="New Gradient Swatch 2" y1="10510.5" y2="10510.5" gradientTransform="translate(0 1502.8) scale(1 .4)" xlink:href="#New_Gradient_Swatch_2"/>
    <linearGradient id="New_Gradient_Swatch_2-13" data-name="New Gradient Swatch 2" y1="11829.3" y2="11829.3" gradientTransform="translate(0 1639.4) scale(1 .3)" xlink:href="#New_Gradient_Swatch_2"/>
    <linearGradient id="New_Gradient_Swatch_2-14" data-name="New Gradient Swatch 2" y1="13675.7" y2="13675.7" gradientTransform="translate(0 1776) scale(1 .3)" xlink:href="#New_Gradient_Swatch_2"/>
    <linearGradient id="New_Gradient_Swatch_2-15" data-name="New Gradient Swatch 2" y1="16445.3" y2="16445.3" gradientTransform="translate(0 1912.6) scale(1 .2)" xlink:href="#New_Gradient_Swatch_2"/>
    <linearGradient id="New_Gradient_Swatch_2-16" data-name="New Gradient Swatch 2" y1="21061.3" y2="21061.3" gradientTransform="translate(0 2049.2) scale(1 .2)" xlink:href="#New_Gradient_Swatch_2"/>
    <linearGradient id="New_Gradient_Swatch_2-17" data-name="New Gradient Swatch 2" y1="30293.3" y2="30293.3" gradientTransform="translate(0 2185.8) scale(1 .1)" xlink:href="#New_Gradient_Swatch_2"/>
    <linearGradient id="New_Gradient_Swatch_2-18" data-name="New Gradient Swatch 2" y1="57989.2" y2="57989.2" gradientTransform="translate(0 2322.5) scale(1 0)" xlink:href="#New_Gradient_Swatch_2"/>
    <linearGradient id="New_Gradient_Swatch_2-19" data-name="New Gradient Swatch 2" y1="5536.4" y2="5536.4" gradientTransform="translate(0 2459.1) scale(1 0)" xlink:href="#New_Gradient_Swatch_2"/>
    <linearGradient id="New_Gradient_Swatch_2-20" data-name="New Gradient Swatch 2" y1="-52794.5" y2="-52794.5" gradientTransform="translate(0 2595.7) scale(1 0)" xlink:href="#New_Gradient_Swatch_2"/>
    <linearGradient id="New_Gradient_Swatch_2-21" data-name="New Gradient Swatch 2" y1="-25098.6" y2="-25098.6" gradientTransform="translate(0 2732.3) scale(1 -.1)" xlink:href="#New_Gradient_Swatch_2"/>
    <linearGradient id="New_Gradient_Swatch_2-22" data-name="New Gradient Swatch 2" y1="-15866.6" y2="-15866.6" gradientTransform="translate(0 2868.9) scale(1 -.2)" xlink:href="#New_Gradient_Swatch_2"/>
    <linearGradient id="New_Gradient_Swatch_2-23" data-name="New Gradient Swatch 2" y1="-11250.6" y2="-11250.6" gradientTransform="translate(0 3005.5) scale(1 -.2)" xlink:href="#New_Gradient_Swatch_2"/>
    <linearGradient id="New_Gradient_Swatch_2-24" data-name="New Gradient Swatch 2" y1="-8481" y2="-8481" gradientTransform="translate(0 3142.1) scale(1 -.3)" xlink:href="#New_Gradient_Swatch_2"/>
    <linearGradient id="New_Gradient_Swatch_2-25" data-name="New Gradient Swatch 2" y1="-6634.6" y2="-6634.6" gradientTransform="translate(0 3278.8) scale(1 -.3)" xlink:href="#New_Gradient_Swatch_2"/>
    <linearGradient id="New_Gradient_Swatch_2-26" data-name="New Gradient Swatch 2" y1="-5315.8" y2="-5315.8" gradientTransform="translate(0 3415.4) scale(1 -.4)" xlink:href="#New_Gradient_Swatch_2"/>
    <linearGradient id="New_Gradient_Swatch_2-27" data-name="New Gradient Swatch 2" y1="-4326.6" y2="-4326.6" gradientTransform="translate(0 3552) scale(1 -.4)" xlink:href="#New_Gradient_Swatch_2"/>
    <linearGradient id="New_Gradient_Swatch_2-28" data-name="New Gradient Swatch 2" y1="-3557.3" y2="-3557.3" gradientTransform="translate(0 3688.6) scale(1 -.5)" xlink:href="#New_Gradient_Swatch_2"/>
    <linearGradient id="New_Gradient_Swatch_2-29" data-name="New Gradient Swatch 2" y1="-2941.8" y2="-2941.8" gradientTransform="translate(0 3825.2) scale(1 -.6)" xlink:href="#New_Gradient_Swatch_2"/>
    <linearGradient id="New_Gradient_Swatch_2-30" data-name="New Gradient Swatch 2" y1="-2438.3" y2="-2438.3" gradientTransform="translate(0 3961.8) scale(1 -.6)" xlink:href="#New_Gradient_Swatch_2"/>
    <linearGradient id="New_Gradient_Swatch_2-31" data-name="New Gradient Swatch 2" y1="-2018.6" y2="-2018.6" gradientTransform="translate(0 4098.5) scale(1 -.7)" xlink:href="#New_Gradient_Swatch_2"/>
    <linearGradient id="New_Gradient_Swatch_2-32" data-name="New Gradient Swatch 2" y1="-1663.6" y2="-1663.6" gradientTransform="translate(0 4235.1) scale(1 -.7)" xlink:href="#New_Gradient_Swatch_2"/>
    <linearGradient id="New_Gradient_Swatch_2-33" data-name="New Gradient Swatch 2" y1="-1359.2" y2="-1359.2" gradientTransform="translate(0 4371.7) scale(1 -.8)" xlink:href="#New_Gradient_Swatch_2"/>
    <linearGradient id="New_Gradient_Swatch_2-34" data-name="New Gradient Swatch 2" y1="-1095.4" y2="-1095.4" gradientTransform="translate(0 4508.3) scale(1 -.8)" xlink:href="#New_Gradient_Swatch_2"/>
    <linearGradient id="New_Gradient_Swatch_2-35" data-name="New Gradient Swatch 2" y1="-864.6" y2="-864.6" gradientTransform="translate(0 4644.9) scale(1 -.9)" xlink:href="#New_Gradient_Swatch_2"/>
    <linearGradient id="New_Gradient_Swatch_2-36" data-name="New Gradient Swatch 2" y1="-661" y2="-661" gradientTransform="translate(0 4781.5) scale(1 -.9)" xlink:href="#New_Gradient_Swatch_2"/>
    <linearGradient id="New_Gradient_Swatch_2-37" data-name="New Gradient Swatch 2" y1="-480" y2="-480" gradientTransform="translate(0 4918.1) scale(1 -1)" xlink:href="#New_Gradient_Swatch_2"/>
    <linearGradient id="New_Gradient_Swatch_2-38" data-name="New Gradient Swatch 2" x1="643.5" y1="753.4" x2="1276.5" y2="753.4" xlink:href="#New_Gradient_Swatch_2"/>
    <linearGradient id="New_Gradient_Swatch_2-39" data-name="New Gradient Swatch 2" x1="643.5" y1="640.5" x2="1276.5" y2="640.5" gradientTransform="translate(0 136.6) scale(1 .9)" xlink:href="#New_Gradient_Swatch_2"/>
    <linearGradient id="New_Gradient_Swatch_2-40" data-name="New Gradient Swatch 2" x1="643.5" y1="513.5" x2="1276.5" y2="513.5" gradientTransform="translate(0 273.2) scale(1 .9)" xlink:href="#New_Gradient_Swatch_2"/>
    <linearGradient id="New_Gradient_Swatch_2-41" data-name="New Gradient Swatch 2" x1="643.5" y1="369.5" x2="1276.5" y2="369.5" gradientTransform="translate(0 409.8) scale(1 .8)" xlink:href="#New_Gradient_Swatch_2"/>
    <linearGradient id="New_Gradient_Swatch_2-42" data-name="New Gradient Swatch 2" x1="643.5" y1="205.1" x2="1276.5" y2="205.1" gradientTransform="translate(0 546.5) scale(1 .8)" xlink:href="#New_Gradient_Swatch_2"/>
    <linearGradient id="New_Gradient_Swatch_2-43" data-name="New Gradient Swatch 2" x1="643.5" y1="15.3" x2="1276.5" y2="15.3" gradientTransform="translate(0 683.1) scale(1 .7)" xlink:href="#New_Gradient_Swatch_2"/>
    <linearGradient id="New_Gradient_Swatch_2-44" data-name="New Gradient Swatch 2" x1="643.5" y1="-206.2" x2="1276.5" y2="-206.2" gradientTransform="translate(0 819.7) scale(1 .7)" xlink:href="#New_Gradient_Swatch_2"/>
    <linearGradient id="New_Gradient_Swatch_2-45" data-name="New Gradient Swatch 2" x1="643.5" y1="-467.9" x2="1276.5" y2="-467.9" gradientTransform="translate(0 956.3) scale(1 .6)" xlink:href="#New_Gradient_Swatch_2"/>
    <linearGradient id="New_Gradient_Swatch_2-46" data-name="New Gradient Swatch 2" x1="643.5" y1="-781.9" x2="1276.5" y2="-781.9" gradientTransform="translate(0 1092.9) scale(1 .6)" xlink:href="#New_Gradient_Swatch_2"/>
    <linearGradient id="New_Gradient_Swatch_2-47" data-name="New Gradient Swatch 2" x1="643.5" y1="-1165.7" x2="1276.5" y2="-1165.7" gradientTransform="translate(0 1229.5) scale(1 .5)" xlink:href="#New_Gradient_Swatch_2"/>
    <linearGradient id="New_Gradient_Swatch_2-48" data-name="New Gradient Swatch 2" x1="643.5" y1="-1645.5" x2="1276.5" y2="-1645.5" gradientTransform="translate(0 1366.2) scale(1 .4)" xlink:href="#New_Gradient_Swatch_2"/>
    <linearGradient id="New_Gradient_Swatch_2-49" data-name="New Gradient Swatch 2" x1="643.5" y1="-2262.3" x2="1276.5" y2="-2262.3" gradientTransform="translate(0 1502.8) scale(1 .4)" xlink:href="#New_Gradient_Swatch_2"/>
    <linearGradient id="New_Gradient_Swatch_2-50" data-name="New Gradient Swatch 2" x1="643.5" y1="-3084.8" x2="1276.5" y2="-3084.8" gradientTransform="translate(0 1639.4) scale(1 .3)" xlink:href="#New_Gradient_Swatch_2"/>
    <linearGradient id="New_Gradient_Swatch_2-51" data-name="New Gradient Swatch 2" x1="643.5" y1="-4236.2" x2="1276.5" y2="-4236.2" gradientTransform="translate(0 1776) scale(1 .3)" xlink:href="#New_Gradient_Swatch_2"/>
    <linearGradient id="New_Gradient_Swatch_2-52" data-name="New Gradient Swatch 2" x1="643.5" y1="-5963.4" x2="1276.5" y2="-5963.4" gradientTransform="translate(0 1912.6) scale(1 .2)" xlink:href="#New_Gradient_Swatch_2"/>
    <linearGradient id="New_Gradient_Swatch_2-53" data-name="New Gradient Swatch 2" x1="643.5" y1="-8842" x2="1276.5" y2="-8842" gradientTransform="translate(0 2049.2) scale(1 .2)" xlink:href="#New_Gradient_Swatch_2"/>
    <linearGradient id="New_Gradient_Swatch_2-54" data-name="New Gradient Swatch 2" x1="643.5" y1="-14599.2" x2="1276.5" y2="-14599.2" gradientTransform="translate(0 2185.8) scale(1 .1)" xlink:href="#New_Gradient_Swatch_2"/>
    <linearGradient id="New_Gradient_Swatch_2-55" data-name="New Gradient Swatch 2" x1="643.5" y1="-31870.8" x2="1276.5" y2="-31870.8" gradientTransform="translate(0 2322.5) scale(1 0)" xlink:href="#New_Gradient_Swatch_2"/>
    <linearGradient id="New_Gradient_Swatch_2-56" data-name="New Gradient Swatch 2" x1="643.5" y1="540" x2="1276.5" y2="540" gradientTransform="translate(0 2459.1) scale(1 0)" xlink:href="#New_Gradient_Swatch_2"/>
    <linearGradient id="New_Gradient_Swatch_2-57" data-name="New Gradient Swatch 2" x1="643.5" y1="37215.7" x2="1276.5" y2="37215.7" gradientTransform="translate(0 2595.7) scale(1 0)" xlink:href="#New_Gradient_Swatch_2"/>
    <linearGradient id="New_Gradient_Swatch_2-58" data-name="New Gradient Swatch 2" x1="643.5" y1="19944.1" x2="1276.5" y2="19944.1" gradientTransform="translate(0 2732.3) scale(1 -.1)" xlink:href="#New_Gradient_Swatch_2"/>
    <linearGradient id="New_Gradient_Swatch_2-59" data-name="New Gradient Swatch 2" x1="643.5" y1="14186.9" x2="1276.5" y2="14186.9" gradientTransform="translate(0 2868.9) scale(1 -.2)" xlink:href="#New_Gradient_Swatch_2"/>
    <linearGradient id="New_Gradient_Swatch_2-60" data-name="New Gradient Swatch 2" x1="643.5" y1="11308.2" x2="1276.5" y2="11308.2" gradientTransform="translate(0 3005.5) scale(1 -.2)" xlink:href="#New_Gradient_Swatch_2"/>
    <linearGradient id="New_Gradient_Swatch_2-61" data-name="New Gradient Swatch 2" x1="643.5" y1="9581.1" x2="1276.5" y2="9581.1" gradientTransform="translate(0 3142.1) scale(1 -.3)" xlink:href="#New_Gradient_Swatch_2"/>
    <linearGradient id="New_Gradient_Swatch_2-62" data-name="New Gradient Swatch 2" x1="643.5" y1="8429.6" x2="1276.5" y2="8429.6" gradientTransform="translate(0 3278.8) scale(1 -.3)" xlink:href="#New_Gradient_Swatch_2"/>
    <linearGradient id="New_Gradient_Swatch_2-63" data-name="New Gradient Swatch 2" x1="643.5" y1="7607.2" x2="1276.5" y2="7607.2" gradientTransform="translate(0 3415.4) scale(1 -.4)" xlink:href="#New_Gradient_Swatch_2"/>
    <linearGradient id="New_Gradient_Swatch_2-64" data-name="New Gradient Swatch 2" x1="643.5" y1="6990.3" x2="1276.5" y2="6990.3" gradientTransform="translate(0 3552) scale(1 -.4)" xlink:href="#New_Gradient_Swatch_2"/>
    <linearGradient id="New_Gradient_Swatch_2-65" data-name="New Gradient Swatch 2" x1="643.5" y1="6510.6" x2="1276.5" y2="6510.6" gradientTransform="translate(0 3688.6) scale(1 -.5)" xlink:href="#New_Gradient_Swatch_2"/>
    <linearGradient id="New_Gradient_Swatch_2-66" data-name="New Gradient Swatch 2" x1="643.5" y1="6126.8" x2="1276.5" y2="6126.8" gradientTransform="translate(0 3825.2) scale(1 -.6)" xlink:href="#New_Gradient_Swatch_2"/>
    <linearGradient id="New_Gradient_Swatch_2-67" data-name="New Gradient Swatch 2" x1="643.5" y1="5812.7" x2="1276.5" y2="5812.7" gradientTransform="translate(0 3961.8) scale(1 -.6)" xlink:href="#New_Gradient_Swatch_2"/>
    <linearGradient id="New_Gradient_Swatch_2-68" data-name="New Gradient Swatch 2" x1="643.5" y1="5551" x2="1276.5" y2="5551" gradientTransform="translate(0 4098.5) scale(1 -.7)" xlink:href="#New_Gradient_Swatch_2"/>
    <linearGradient id="New_Gradient_Swatch_2-69" data-name="New Gradient Swatch 2" x1="643.5" y1="5329.6" x2="1276.5" y2="5329.6" gradientTransform="translate(0 4235.1) scale(1 -.7)" xlink:href="#New_Gradient_Swatch_2"/>
    <linearGradient id="New_Gradient_Swatch_2-70" data-name="New Gradient Swatch 2" x1="643.5" y1="5139.8" x2="1276.5" y2="5139.8" gradientTransform="translate(0 4371.7) scale(1 -.8)" xlink:href="#New_Gradient_Swatch_2"/>
    <linearGradient id="New_Gradient_Swatch_2-71" data-name="New Gradient Swatch 2" x1="643.5" y1="4975.3" x2="1276.5" y2="4975.3" gradientTransform="translate(0 4508.3) scale(1 -.8)" xlink:href="#New_Gradient_Swatch_2"/>
    <linearGradient id="New_Gradient_Swatch_2-72" data-name="New Gradient Swatch 2" x1="643.5" y1="4831.4" x2="1276.5" y2="4831.4" gradientTransform="translate(0 4644.9) scale(1 -.9)" xlink:href="#New_Gradient_Swatch_2"/>
    <linearGradient id="New_Gradient_Swatch_2-73" data-name="New Gradient Swatch 2" x1="643.5" y1="4704.4" x2="1276.5" y2="4704.4" gradientTransform="translate(0 4781.5) scale(1 -.9)" xlink:href="#New_Gradient_Swatch_2"/>
    <linearGradient id="New_Gradient_Swatch_2-74" data-name="New Gradient Swatch 2" x1="643.5" y1="4591.5" x2="1276.5" y2="4591.5" gradientTransform="translate(0 4918.1) scale(1 -1)" xlink:href="#New_Gradient_Swatch_2"/>
  </defs>
  <g>
    <path d="M5376.4,5813c377.9,0,173.1-276.6,408.3-276.6" fill="none" stroke="url(#New_Gradient_Swatch_2)" stroke-linecap="round" stroke-miterlimit="10" stroke-width="2"/>
    <path d="M5376.4,5797.6c377.9,0,173.1-261.2,408.3-261.2" fill="none" stroke="url(#New_Gradient_Swatch_2-2)" stroke-linecap="round" stroke-miterlimit="10" stroke-width="2"/>
    <path d="M5376.4,5782.2c377.9,0,173.1-245.8,408.3-245.8" fill="none" stroke="url(#New_Gradient_Swatch_2-3)" stroke-linecap="round" stroke-miterlimit="10" stroke-width="2"/>
    <path d="M5376.4,5766.9c377.9,0,173.1-230.5,408.3-230.5" fill="none" stroke="url(#New_Gradient_Swatch_2-4)" stroke-linecap="round" stroke-miterlimit="10" stroke-width="2"/>
    <path d="M5376.4,5751.5c377.9,0,173.1-215.1,408.3-215.1" fill="none" stroke="url(#New_Gradient_Swatch_2-5)" stroke-linecap="round" stroke-miterlimit="10" stroke-width="2"/>
    <path d="M5376.4,5736.1c377.9,0,173.1-199.8,408.3-199.8" fill="none" stroke="url(#New_Gradient_Swatch_2-6)" stroke-linecap="round" stroke-miterlimit="10" stroke-width="2"/>
    <path d="M5376.4,5720.8c377.9,0,173.1-184.4,408.3-184.4" fill="none" stroke="url(#New_Gradient_Swatch_2-7)" stroke-linecap="round" stroke-miterlimit="10" stroke-width="2"/>
    <path d="M5376.4,5705.4c377.9,0,173.1-169,408.3-169" fill="none" stroke="url(#New_Gradient_Swatch_2-8)" stroke-linecap="round" stroke-miterlimit="10" stroke-width="2"/>
    <path d="M5376.4,5690.1c377.9,0,173.1-153.7,408.3-153.7" fill="none" stroke="url(#New_Gradient_Swatch_2-9)" stroke-linecap="round" stroke-miterlimit="10" stroke-width="2"/>
    <path d="M5376.4,5674.7c377.9,0,173.1-138.3,408.3-138.3" fill="none" stroke="url(#New_Gradient_Swatch_2-10)" stroke-linecap="round" stroke-miterlimit="10" stroke-width="2"/>
    <path d="M5376.4,5659.3c377.9,0,173.1-122.9,408.3-122.9" fill="none" stroke="url(#New_Gradient_Swatch_2-11)" stroke-linecap="round" stroke-miterlimit="10" stroke-width="2"/>
    <path d="M5376.4,5644c377.9,0,173.1-107.6,408.3-107.6" fill="none" stroke="url(#New_Gradient_Swatch_2-12)" stroke-linecap="round" stroke-miterlimit="10" stroke-width="2"/>
    <path d="M5376.4,5628.6c377.9,0,173.1-92.2,408.3-92.2" fill="none" stroke="url(#New_Gradient_Swatch_2-13)" stroke-linecap="round" stroke-miterlimit="10" stroke-width="2"/>
    <path d="M5376.4,5613.2c377.9,0,173.1-76.8,408.3-76.8" fill="none" stroke="url(#New_Gradient_Swatch_2-14)" stroke-linecap="round" stroke-miterlimit="10" stroke-width="2"/>
    <path d="M5376.4,5597.9c377.9,0,173.1-61.5,408.3-61.5" fill="none" stroke="url(#New_Gradient_Swatch_2-15)" stroke-linecap="round" stroke-miterlimit="10" stroke-width="2"/>
    <path d="M5376.4,5582.5c377.9,0,173.1-46.1,408.3-46.1" fill="none" stroke="url(#New_Gradient_Swatch_2-16)" stroke-linecap="round" stroke-miterlimit="10" stroke-width="2"/>
    <path d="M5376.4,5567.1c377.9,0,173.1-30.7,408.3-30.7" fill="none" stroke="url(#New_Gradient_Swatch_2-17)" stroke-linecap="round" stroke-miterlimit="10" stroke-width="2"/>
    <path d="M5376.4,5551.8c377.9,0,173.1-15.4,408.3-15.4" fill="none" stroke="url(#New_Gradient_Swatch_2-18)" stroke-linecap="round" stroke-miterlimit="10" stroke-width="2"/>
    <path d="M5376.4,5536.4h408.3" fill="none" stroke="url(#New_Gradient_Swatch_2-19)" stroke-linecap="round" stroke-miterlimit="10" stroke-width="2"/>
    <path d="M5376.4,5521c377.9,0,173.1,15.4,408.3,15.4" fill="none" stroke="url(#New_Gradient_Swatch_2-20)" stroke-linecap="round" stroke-miterlimit="10" stroke-width="2"/>
    <path d="M5376.4,5505.7c377.9,0,173.1,30.7,408.3,30.7" fill="none" stroke="url(#New_Gradient_Swatch_2-21)" stroke-linecap="round" stroke-miterlimit="10" stroke-width="2"/>
    <path d="M5376.4,5490.3c377.9,0,173.1,46.1,408.3,46.1" fill="none" stroke="url(#New_Gradient_Swatch_2-22)" stroke-linecap="round" stroke-miterlimit="10" stroke-width="2"/>
    <path d="M5376.4,5474.9c377.9,0,173.1,61.5,408.3,61.5" fill="none" stroke="url(#New_Gradient_Swatch_2-23)" stroke-linecap="round" stroke-miterlimit="10" stroke-width="2"/>
    <path d="M5376.4,5459.6c377.9,0,173.1,76.8,408.3,76.8" fill="none" stroke="url(#New_Gradient_Swatch_2-24)" stroke-linecap="round" stroke-miterlimit="10" stroke-width="2"/>
    <path d="M5376.4,5444.2c377.9,0,173.1,92.2,408.3,92.2" fill="none" stroke="url(#New_Gradient_Swatch_2-25)" stroke-linecap="round" stroke-miterlimit="10" stroke-width="2"/>
    <path d="M5376.4,5428.8c377.9,0,173.1,107.6,408.3,107.6" fill="none" stroke="url(#New_Gradient_Swatch_2-26)" stroke-linecap="round" stroke-miterlimit="10" stroke-width="2"/>
    <path d="M5376.4,5413.5c377.9,0,173.1,122.9,408.3,122.9" fill="none" stroke="url(#New_Gradient_Swatch_2-27)" stroke-linecap="round" stroke-miterlimit="10" stroke-width="2"/>
    <path d="M5376.4,5398.1c377.9,0,173.1,138.3,408.3,138.3" fill="none" stroke="url(#New_Gradient_Swatch_2-28)" stroke-linecap="round" stroke-miterlimit="10" stroke-width="2"/>
    <path d="M5376.4,5382.7c377.9,0,173.1,153.7,408.3,153.7" fill="none" stroke="url(#New_Gradient_Swatch_2-29)" stroke-linecap="round" stroke-miterlimit="10" stroke-width="2"/>
    <path d="M5376.4,5367.4c377.9,0,173.1,169,408.3,169" fill="none" stroke="url(#New_Gradient_Swatch_2-30)" stroke-linecap="round" stroke-miterlimit="10" stroke-width="2"/>
    <path d="M5376.4,5352c377.9,0,173.1,184.4,408.3,184.4" fill="none" stroke="url(#New_Gradient_Swatch_2-31)" stroke-linecap="round" stroke-miterlimit="10" stroke-width="2"/>
    <path d="M5376.4,5336.6c377.9,0,173.1,199.8,408.3,199.8" fill="none" stroke="url(#New_Gradient_Swatch_2-32)" stroke-linecap="round" stroke-miterlimit="10" stroke-width="2"/>
    <path d="M5376.4,5321.3c377.9,0,173.1,215.1,408.3,215.1" fill="none" stroke="url(#New_Gradient_Swatch_2-33)" stroke-linecap="round" stroke-miterlimit="10" stroke-width="2"/>
    <path d="M5376.4,5305.9c377.9,0,173.1,230.5,408.3,230.5" fill="none" stroke="url(#New_Gradient_Swatch_2-34)" stroke-linecap="round" stroke-miterlimit="10" stroke-width="2"/>
    <path d="M5376.4,5290.5c377.9,0,173.1,245.8,408.3,245.8" fill="none" stroke="url(#New_Gradient_Swatch_2-35)" stroke-linecap="round" stroke-miterlimit="10" stroke-width="2"/>
    <path d="M5376.4,5275.2c377.9,0,173.1,261.2,408.3,261.2" fill="none" stroke="url(#New_Gradient_Swatch_2-36)" stroke-linecap="round" stroke-miterlimit="10" stroke-width="2"/>
    <path d="M5376.4,5259.8c377.9,0,173.1,276.6,408.3,276.6" fill="none" stroke="url(#New_Gradient_Swatch_2-37)" stroke-linecap="round" stroke-miterlimit="10" stroke-width="2"/>
  </g>
  <g>
    <path d="M645,966.7c583,0,267-426.7,629.9-426.7" fill="none" stroke="url(#New_Gradient_Swatch_2-38)" stroke-linecap="round" stroke-miterlimit="10" stroke-width="3"/>
    <path d="M645,943c583,0,267-403,629.9-403" fill="none" stroke="url(#New_Gradient_Swatch_2-39)" stroke-linecap="round" stroke-miterlimit="10" stroke-width="3"/>
    <path d="M645,919.3c583,0,267-379.3,629.9-379.3" fill="none" stroke="url(#New_Gradient_Swatch_2-40)" stroke-linecap="round" stroke-miterlimit="10" stroke-width="3"/>
    <path d="M645,895.6c583,0,267-355.6,629.9-355.6" fill="none" stroke="url(#New_Gradient_Swatch_2-41)" stroke-linecap="round" stroke-miterlimit="10" stroke-width="3"/>
    <path d="M645,871.9c583,0,267-331.9,629.9-331.9" fill="none" stroke="url(#New_Gradient_Swatch_2-42)" stroke-linecap="round" stroke-miterlimit="10" stroke-width="3"/>
    <path d="M645,848.2c583,0,267-308.2,629.9-308.2" fill="none" stroke="url(#New_Gradient_Swatch_2-43)" stroke-linecap="round" stroke-miterlimit="10" stroke-width="3"/>
    <path d="M645,824.5c583,0,267-284.5,629.9-284.5" fill="none" stroke="url(#New_Gradient_Swatch_2-44)" stroke-linecap="round" stroke-miterlimit="10" stroke-width="3"/>
    <path d="M645,800.8c583,0,267-260.8,629.9-260.8" fill="none" stroke="url(#New_Gradient_Swatch_2-45)" stroke-linecap="round" stroke-miterlimit="10" stroke-width="3"/>
    <path d="M645,777.1c583,0,267-237.1,629.9-237.1" fill="none" stroke="url(#New_Gradient_Swatch_2-46)" stroke-linecap="round" stroke-miterlimit="10" stroke-width="3"/>
    <path d="M645,753.4c583,0,267-213.4,629.9-213.4" fill="none" stroke="url(#New_Gradient_Swatch_2-47)" stroke-linecap="round" stroke-miterlimit="10" stroke-width="3"/>
    <path d="M645,729.7c583,0,267-189.7,629.9-189.7" fill="none" stroke="url(#New_Gradient_Swatch_2-48)" stroke-linecap="round" stroke-miterlimit="10" stroke-width="3"/>
    <path d="M645,705.9c583,0,267-165.9,629.9-165.9" fill="none" stroke="url(#New_Gradient_Swatch_2-49)" stroke-linecap="round" stroke-miterlimit="10" stroke-width="3"/>
    <path d="M645,682.2c583,0,267-142.2,629.9-142.2" fill="none" stroke="url(#New_Gradient_Swatch_2-50)" stroke-linecap="round" stroke-miterlimit="10" stroke-width="3"/>
    <path d="M645,658.5c583,0,267-118.5,629.9-118.5" fill="none" stroke="url(#New_Gradient_Swatch_2-51)" stroke-linecap="round" stroke-miterlimit="10" stroke-width="3"/>
    <path d="M645,634.8c583,0,267-94.8,629.9-94.8" fill="none" stroke="url(#New_Gradient_Swatch_2-52)" stroke-linecap="round" stroke-miterlimit="10" stroke-width="3"/>
    <path d="M645,611.1c583,0,267-71.1,629.9-71.1" fill="none" stroke="url(#New_Gradient_Swatch_2-53)" stroke-linecap="round" stroke-miterlimit="10" stroke-width="3"/>
    <path d="M645,587.4c583,0,267-47.4,629.9-47.4" fill="none" stroke="url(#New_Gradient_Swatch_2-54)" stroke-linecap="round" stroke-miterlimit="10" stroke-width="3"/>
    <path d="M645,563.7c583,0,267-23.7,629.9-23.7" fill="none" stroke="url(#New_Gradient_Swatch_2-55)" stroke-linecap="round" stroke-miterlimit="10" stroke-width="3"/>
    <path d="M645,540c583,0,267,0,629.9,0" fill="none" stroke="url(#New_Gradient_Swatch_2-56)" stroke-linecap="round" stroke-miterlimit="10" stroke-width="3"/>
    <path d="M645,516.3c583,0,267,23.7,629.9,23.7" fill="none" stroke="url(#New_Gradient_Swatch_2-57)" stroke-linecap="round" stroke-miterlimit="10" stroke-width="3"/>
    <path d="M645,492.6c583,0,267,47.4,629.9,47.4" fill="none" stroke="url(#New_Gradient_Swatch_2-58)" stroke-linecap="round" stroke-miterlimit="10" stroke-width="3"/>
    <path d="M645,468.9c583,0,267,71.1,629.9,71.1" fill="none" stroke="url(#New_Gradient_Swatch_2-59)" stroke-linecap="round" stroke-miterlimit="10" stroke-width="3"/>
    <path d="M645,445.2c583,0,267,94.8,629.9,94.8" fill="none" stroke="url(#New_Gradient_Swatch_2-60)" stroke-linecap="round" stroke-miterlimit="10" stroke-width="3"/>
    <path d="M645,421.5c583,0,267,118.5,629.9,118.5" fill="none" stroke="url(#New_Gradient_Swatch_2-61)" stroke-linecap="round" stroke-miterlimit="10" stroke-width="3"/>
    <path d="M645,397.8c583,0,267,142.2,629.9,142.2" fill="none" stroke="url(#New_Gradient_Swatch_2-62)" stroke-linecap="round" stroke-miterlimit="10" stroke-width="3"/>
    <path d="M645,374.1c583,0,267,165.9,629.9,165.9" fill="none" stroke="url(#New_Gradient_Swatch_2-63)" stroke-linecap="round" stroke-miterlimit="10" stroke-width="3"/>
    <path d="M645,350.3c583,0,267,189.7,629.9,189.7" fill="none" stroke="url(#New_Gradient_Swatch_2-64)" stroke-linecap="round" stroke-miterlimit="10" stroke-width="3"/>
    <path d="M645,326.6c583,0,267,213.4,629.9,213.4" fill="none" stroke="url(#New_Gradient_Swatch_2-65)" stroke-linecap="round" stroke-miterlimit="10" stroke-width="3"/>
    <path d="M645,302.9c583,0,267,237.1,629.9,237.1" fill="none" stroke="url(#New_Gradient_Swatch_2-66)" stroke-linecap="round" stroke-miterlimit="10" stroke-width="3"/>
    <path d="M645,279.2c583,0,267,260.8,629.9,260.8" fill="none" stroke="url(#New_Gradient_Swatch_2-67)" stroke-linecap="round" stroke-miterlimit="10" stroke-width="3"/>
    <path d="M645,255.5c583,0,267,284.5,629.9,284.5" fill="none" stroke="url(#New_Gradient_Swatch_2-68)" stroke-linecap="round" stroke-miterlimit="10" stroke-width="3"/>
    <path d="M645,231.8c583,0,267,308.2,629.9,308.2" fill="none" stroke="url(#New_Gradient_Swatch_2-69)" stroke-linecap="round" stroke-miterlimit="10" stroke-width="3"/>
    <path d="M645,208.1c583,0,267,331.9,629.9,331.9" fill="none" stroke="url(#New_Gradient_Swatch_2-70)" stroke-linecap="round" stroke-miterlimit="10" stroke-width="3"/>
    <path d="M645,184.4c583,0,267,355.6,629.9,355.6" fill="none" stroke="url(#New_Gradient_Swatch_2-71)" stroke-linecap="round" stroke-miterlimit="10" stroke-width="3"/>
    <path d="M645,160.7c583,0,267,379.3,629.9,379.3" fill="none" stroke="url(#New_Gradient_Swatch_2-72)" stroke-linecap="round" stroke-miterlimit="10" stroke-width="3"/>
    <path d="M645,137c583,0,267,403,629.9,403" fill="none" stroke="url(#New_Gradient_Swatch_2-73)" stroke-linecap="round" stroke-miterlimit="10" stroke-width="3"/>
    <path d="M645,113.3c583,0,267,426.7,629.9,426.7" fill="none" stroke="url(#New_Gradient_Swatch_2-74)" stroke-linecap="round" stroke-miterlimit="10" stroke-width="3"/>
  </g>
</svg>
