<svg width="591" height="711" viewBox="0 0 591 711" fill="none" xmlns="http://www.w3.org/2000/svg">
<path d="M355.5 330.227C341.565 330.227 330.228 341.564 330.228 355.5C330.228 369.435 341.565 380.772 355.5 380.772C369.435 380.772 380.772 369.435 380.772 355.5C380.772 341.564 369.435 330.227 355.5 330.227Z" stroke="url(#paint0_linear_3118_178)" stroke-width="3" stroke-miterlimit="10" stroke-linecap="round"/>
<path d="M355.5 405.966C383.372 405.966 405.966 383.371 405.966 355.5C405.966 327.628 383.372 305.033 355.5 305.033C327.628 305.033 305.034 327.628 305.034 355.5C305.034 383.371 327.628 405.966 355.5 405.966Z" stroke="url(#paint1_linear_3118_178)" stroke-width="3" stroke-miterlimit="10" stroke-linecap="round"/>
<path d="M355.5 431.239C397.329 431.239 431.239 397.329 431.239 355.5C431.239 313.671 397.329 279.761 355.5 279.761C313.671 279.761 279.761 313.671 279.761 355.5C279.761 397.329 313.671 431.239 355.5 431.239Z" stroke="url(#paint2_linear_3118_178)" stroke-width="3" stroke-miterlimit="10" stroke-linecap="round"/>
<path d="M355.5 456.511C411.287 456.511 456.511 411.287 456.511 355.5C456.511 299.713 411.287 254.489 355.5 254.489C299.713 254.489 254.489 299.713 254.489 355.5C254.489 411.287 299.713 456.511 355.5 456.511Z" stroke="url(#paint3_linear_3118_178)" stroke-width="3" stroke-miterlimit="10" stroke-linecap="round"/>
<path d="M355.5 481.784C425.245 481.784 481.784 425.245 481.784 355.5C481.784 285.756 425.245 229.217 355.5 229.217C285.755 229.217 229.216 285.756 229.216 355.5C229.216 425.245 285.755 481.784 355.5 481.784Z" stroke="url(#paint4_linear_3118_178)" stroke-width="3" stroke-miterlimit="10" stroke-linecap="round"/>
<path d="M355.5 506.978C439.159 506.978 506.977 439.159 506.977 355.5C506.977 271.841 439.159 204.023 355.5 204.023C271.841 204.023 204.022 271.841 204.022 355.5C204.022 439.159 271.841 506.978 355.5 506.978Z" stroke="url(#paint5_linear_3118_178)" stroke-width="3" stroke-miterlimit="10" stroke-linecap="round"/>
<path d="M355.5 532.25C453.116 532.25 532.25 453.116 532.25 355.5C532.25 257.884 453.116 178.75 355.5 178.75C257.884 178.75 178.75 257.884 178.75 355.5C178.75 453.116 257.884 532.25 355.5 532.25Z" stroke="url(#paint6_linear_3118_178)" stroke-width="3" stroke-miterlimit="10" stroke-linecap="round"/>
<path d="M355.5 557.522C467.074 557.522 557.523 467.074 557.523 355.5C557.523 243.926 467.074 153.477 355.5 153.477C243.926 153.477 153.478 243.926 153.478 355.5C153.478 467.074 243.926 557.522 355.5 557.522Z" stroke="url(#paint7_linear_3118_178)" stroke-width="3" stroke-miterlimit="10" stroke-linecap="round"/>
<path d="M355.5 582.716C480.988 582.716 582.716 480.988 582.716 355.5C582.716 230.012 480.988 128.284 355.5 128.284C230.012 128.284 128.284 230.012 128.284 355.5C128.284 480.988 230.012 582.716 355.5 582.716Z" stroke="url(#paint8_linear_3118_178)" stroke-width="3" stroke-miterlimit="10" stroke-linecap="round"/>
<path d="M355.5 607.989C494.946 607.989 607.989 494.946 607.989 355.5C607.989 216.054 494.946 103.011 355.5 103.011C216.054 103.011 103.011 216.054 103.011 355.5C103.011 494.946 216.054 607.989 355.5 607.989Z" stroke="url(#paint9_linear_3118_178)" stroke-width="3" stroke-miterlimit="10" stroke-linecap="round"/>
<path d="M355.5 633.261C508.903 633.261 633.261 508.903 633.261 355.5C633.261 202.097 508.903 77.7388 355.5 77.7388C202.097 77.7388 77.7388 202.097 77.7388 355.5C77.7388 508.903 202.097 633.261 355.5 633.261Z" stroke="url(#paint10_linear_3118_178)" stroke-width="3" stroke-miterlimit="10" stroke-linecap="round"/>
<path d="M355.5 658.455C522.817 658.455 658.455 522.818 658.455 355.5C658.455 188.183 522.817 52.5452 355.5 52.5452C188.182 52.5452 52.5449 188.183 52.5449 355.5C52.5449 522.818 188.182 658.455 355.5 658.455Z" stroke="url(#paint11_linear_3118_178)" stroke-width="3" stroke-miterlimit="10" stroke-linecap="round"/>
<path d="M355.5 683.728C536.775 683.728 683.727 536.775 683.727 355.5C683.727 174.225 536.775 27.2726 355.5 27.2726C174.225 27.2726 27.2725 174.225 27.2725 355.5C27.2725 536.775 174.225 683.728 355.5 683.728Z" stroke="url(#paint12_linear_3118_178)" stroke-width="3" stroke-miterlimit="10" stroke-linecap="round"/>
<path d="M355.5 709C550.733 709 709 550.733 709 355.5C709 160.267 550.733 2 355.5 2C160.267 2 2 160.267 2 355.5C2 550.733 160.267 709 355.5 709Z" stroke="url(#paint13_linear_3118_178)" stroke-width="3" stroke-miterlimit="10" stroke-linecap="round"/>
<defs>
<linearGradient id="paint0_linear_3118_178" x1="329.047" y1="355.5" x2="381.953" y2="355.5" gradientUnits="userSpaceOnUse">
<stop stop-color="#80BC00"/>
<stop offset="0.2" stop-color="#009ADE"/>
<stop offset="0.8" stop-color="#171B38"/>
</linearGradient>
<linearGradient id="paint1_linear_3118_178" x1="303.853" y1="355.5" x2="407.147" y2="355.5" gradientUnits="userSpaceOnUse">
<stop stop-color="#80BC00"/>
<stop offset="0.2" stop-color="#009ADE"/>
<stop offset="0.8" stop-color="#171B38"/>
</linearGradient>
<linearGradient id="paint2_linear_3118_178" x1="278.58" y1="-69.6448" x2="432.42" y2="-69.6448" gradientUnits="userSpaceOnUse">
<stop stop-color="#80BC00"/>
<stop offset="0.2" stop-color="#009ADE"/>
<stop offset="0.8" stop-color="#171B38"/>
</linearGradient>
<linearGradient id="paint3_linear_3118_178" x1="253.308" y1="355.5" x2="457.692" y2="355.5" gradientUnits="userSpaceOnUse">
<stop stop-color="#80BC00"/>
<stop offset="0.2" stop-color="#009ADE"/>
<stop offset="0.8" stop-color="#171B38"/>
</linearGradient>
<linearGradient id="paint4_linear_3118_178" x1="228.035" y1="355.5" x2="482.965" y2="355.5" gradientUnits="userSpaceOnUse">
<stop stop-color="#80BC00"/>
<stop offset="0.2" stop-color="#009ADE"/>
<stop offset="0.8" stop-color="#171B38"/>
</linearGradient>
<linearGradient id="paint5_linear_3118_178" x1="202.842" y1="355.5" x2="508.158" y2="355.5" gradientUnits="userSpaceOnUse">
<stop stop-color="#80BC00"/>
<stop offset="0.2" stop-color="#009ADE"/>
<stop offset="0.8" stop-color="#171B38"/>
</linearGradient>
<linearGradient id="paint6_linear_3118_178" x1="177.569" y1="355.5" x2="533.431" y2="355.5" gradientUnits="userSpaceOnUse">
<stop stop-color="#80BC00"/>
<stop offset="0.2" stop-color="#009ADE"/>
<stop offset="0.8" stop-color="#171B38"/>
</linearGradient>
<linearGradient id="paint7_linear_3118_178" x1="152.297" y1="355.5" x2="558.703" y2="355.5" gradientUnits="userSpaceOnUse">
<stop stop-color="#80BC00"/>
<stop offset="0.2" stop-color="#009ADE"/>
<stop offset="0.8" stop-color="#171B38"/>
</linearGradient>
<linearGradient id="paint8_linear_3118_178" x1="127.103" y1="355.5" x2="583.897" y2="355.5" gradientUnits="userSpaceOnUse">
<stop stop-color="#80BC00"/>
<stop offset="0.2" stop-color="#009ADE"/>
<stop offset="0.8" stop-color="#171B38"/>
</linearGradient>
<linearGradient id="paint9_linear_3118_178" x1="101.83" y1="355.5" x2="609.17" y2="355.5" gradientUnits="userSpaceOnUse">
<stop stop-color="#80BC00"/>
<stop offset="0.2" stop-color="#009ADE"/>
<stop offset="0.8" stop-color="#171B38"/>
</linearGradient>
<linearGradient id="paint10_linear_3118_178" x1="76.5578" y1="355.5" x2="634.442" y2="355.5" gradientUnits="userSpaceOnUse">
<stop stop-color="#80BC00"/>
<stop offset="0.2" stop-color="#009ADE"/>
<stop offset="0.8" stop-color="#171B38"/>
</linearGradient>
<linearGradient id="paint11_linear_3118_178" x1="51.364" y1="355.5" x2="659.636" y2="355.5" gradientUnits="userSpaceOnUse">
<stop stop-color="#80BC00"/>
<stop offset="0.2" stop-color="#009ADE"/>
<stop offset="0.8" stop-color="#171B38"/>
</linearGradient>
<linearGradient id="paint12_linear_3118_178" x1="26.0915" y1="355.5" x2="684.908" y2="355.5" gradientUnits="userSpaceOnUse">
<stop stop-color="#80BC00"/>
<stop offset="0.2" stop-color="#009ADE"/>
<stop offset="0.8" stop-color="#171B38"/>
</linearGradient>
<linearGradient id="paint13_linear_3118_178" x1="0.819042" y1="355.5" x2="710.181" y2="355.5" gradientUnits="userSpaceOnUse">
<stop stop-color="#80BC00"/>
<stop offset="0.2" stop-color="#009ADE"/>
<stop offset="0.8" stop-color="#171B38"/>
</linearGradient>
</defs>
</svg>
