<svg width="477" height="569" viewBox="0 0 477 569" fill="none" xmlns="http://www.w3.org/2000/svg">
<path d="M2 842.204C585 842.204 269 421.958 631.9 421.958" stroke="url(#paint0_linear_2816_66904)" stroke-width="3" stroke-miterlimit="10" stroke-linecap="round"/>
<path d="M2 818.863C585 818.863 269 421.958 631.9 421.958" stroke="url(#paint1_linear_2816_66904)" stroke-width="3" stroke-miterlimit="10" stroke-linecap="round"/>
<path d="M2 795.521C585 795.521 269 421.958 631.9 421.958" stroke="url(#paint2_linear_2816_66904)" stroke-width="3" stroke-miterlimit="10" stroke-linecap="round"/>
<path d="M2 772.18C585 772.18 269 421.958 631.9 421.958" stroke="url(#paint3_linear_2816_66904)" stroke-width="3" stroke-miterlimit="10" stroke-linecap="round"/>
<path d="M2 748.838C585 748.838 269 421.958 631.9 421.958" stroke="url(#paint4_linear_2816_66904)" stroke-width="3" stroke-miterlimit="10" stroke-linecap="round"/>
<path d="M2 725.497C585 725.497 269 421.958 631.9 421.958" stroke="url(#paint5_linear_2816_66904)" stroke-width="3" stroke-miterlimit="10" stroke-linecap="round"/>
<path d="M2 702.155C585 702.155 269 421.958 631.9 421.958" stroke="url(#paint6_linear_2816_66904)" stroke-width="3" stroke-miterlimit="10" stroke-linecap="round"/>
<path d="M2 678.814C585 678.814 269 421.958 631.9 421.958" stroke="url(#paint7_linear_2816_66904)" stroke-width="3" stroke-miterlimit="10" stroke-linecap="round"/>
<path d="M2 655.472C585 655.472 269 421.958 631.9 421.958" stroke="url(#paint8_linear_2816_66904)" stroke-width="3" stroke-miterlimit="10" stroke-linecap="round"/>
<path d="M2 632.131C585 632.131 269 421.958 631.9 421.958" stroke="url(#paint9_linear_2816_66904)" stroke-width="3" stroke-miterlimit="10" stroke-linecap="round"/>
<path d="M2 608.789C585 608.789 269 421.958 631.9 421.958" stroke="url(#paint10_linear_2816_66904)" stroke-width="3" stroke-miterlimit="10" stroke-linecap="round"/>
<path d="M2 585.349C585 585.349 269 421.958 631.9 421.958" stroke="url(#paint11_linear_2816_66904)" stroke-width="3" stroke-miterlimit="10" stroke-linecap="round"/>
<path d="M2 562.007C585 562.007 269 421.958 631.9 421.958" stroke="url(#paint12_linear_2816_66904)" stroke-width="3" stroke-miterlimit="10" stroke-linecap="round"/>
<path d="M2 538.666C585 538.666 269 421.958 631.9 421.958" stroke="url(#paint13_linear_2816_66904)" stroke-width="3" stroke-miterlimit="10" stroke-linecap="round"/>
<path d="M2 515.324C585 515.324 269 421.958 631.9 421.958" stroke="url(#paint14_linear_2816_66904)" stroke-width="3" stroke-miterlimit="10" stroke-linecap="round"/>
<path d="M2 491.983C585 491.983 269 421.958 631.9 421.958" stroke="url(#paint15_linear_2816_66904)" stroke-width="3" stroke-miterlimit="10" stroke-linecap="round"/>
<path d="M2 468.641C585 468.641 269 421.958 631.9 421.958" stroke="url(#paint16_linear_2816_66904)" stroke-width="3" stroke-miterlimit="10" stroke-linecap="round"/>
<path d="M2 445.3C585 445.3 269 421.958 631.9 421.958" stroke="url(#paint17_linear_2816_66904)" stroke-width="3" stroke-miterlimit="10" stroke-linecap="round"/>
<path d="M2 421.958C585 421.958 269 421.958 631.9 421.958" stroke="url(#paint18_linear_2816_66904)" stroke-width="3" stroke-miterlimit="10" stroke-linecap="round"/>
<path d="M2 398.617C585 398.617 269 421.958 631.9 421.958" stroke="url(#paint19_linear_2816_66904)" stroke-width="3" stroke-miterlimit="10" stroke-linecap="round"/>
<path d="M2 375.275C585 375.275 269 421.958 631.9 421.958" stroke="url(#paint20_linear_2816_66904)" stroke-width="3" stroke-miterlimit="10" stroke-linecap="round"/>
<path d="M2 351.934C585 351.934 269 421.958 631.9 421.958" stroke="url(#paint21_linear_2816_66904)" stroke-width="3" stroke-miterlimit="10" stroke-linecap="round"/>
<path d="M2 328.592C585 328.592 269 421.958 631.9 421.958" stroke="url(#paint22_linear_2816_66904)" stroke-width="3" stroke-miterlimit="10" stroke-linecap="round"/>
<path d="M2 305.251C585 305.251 269 421.958 631.9 421.958" stroke="url(#paint23_linear_2816_66904)" stroke-width="3" stroke-miterlimit="10" stroke-linecap="round"/>
<path d="M2 281.909C585 281.909 269 421.958 631.9 421.958" stroke="url(#paint24_linear_2816_66904)" stroke-width="3" stroke-miterlimit="10" stroke-linecap="round"/>
<path d="M2 258.568C585 258.568 269 421.958 631.9 421.958" stroke="url(#paint25_linear_2816_66904)" stroke-width="3" stroke-miterlimit="10" stroke-linecap="round"/>
<path d="M2 235.127C585 235.127 269 421.958 631.9 421.958" stroke="url(#paint26_linear_2816_66904)" stroke-width="3" stroke-miterlimit="10" stroke-linecap="round"/>
<path d="M2 211.786C585 211.786 269 421.958 631.9 421.958" stroke="url(#paint27_linear_2816_66904)" stroke-width="3" stroke-miterlimit="10" stroke-linecap="round"/>
<path d="M2 188.444C585 188.444 269 421.958 631.9 421.958" stroke="url(#paint28_linear_2816_66904)" stroke-width="3" stroke-miterlimit="10" stroke-linecap="round"/>
<path d="M2 165.103C585 165.103 269 421.958 631.9 421.958" stroke="url(#paint29_linear_2816_66904)" stroke-width="3" stroke-miterlimit="10" stroke-linecap="round"/>
<path d="M2 141.761C585 141.761 269 421.958 631.9 421.958" stroke="url(#paint30_linear_2816_66904)" stroke-width="3" stroke-miterlimit="10" stroke-linecap="round"/>
<path d="M2 118.42C585 118.42 269 421.958 631.9 421.958" stroke="url(#paint31_linear_2816_66904)" stroke-width="3" stroke-miterlimit="10" stroke-linecap="round"/>
<path d="M2 95.0783C585 95.0783 269 421.958 631.9 421.958" stroke="url(#paint32_linear_2816_66904)" stroke-width="3" stroke-miterlimit="10" stroke-linecap="round"/>
<path d="M2 71.7368C585 71.7368 269 421.958 631.9 421.958" stroke="url(#paint33_linear_2816_66904)" stroke-width="3" stroke-miterlimit="10" stroke-linecap="round"/>
<path d="M2 48.3952C585 48.3952 269 421.958 631.9 421.958" stroke="url(#paint34_linear_2816_66904)" stroke-width="3" stroke-miterlimit="10" stroke-linecap="round"/>
<path d="M2 25.0537C585 25.0537 269 421.958 631.9 421.958" stroke="url(#paint35_linear_2816_66904)" stroke-width="3" stroke-miterlimit="10" stroke-linecap="round"/>
<path d="M2 1.71228C585 1.71228 269 421.958 631.9 421.958" stroke="url(#paint36_linear_2816_66904)" stroke-width="3" stroke-miterlimit="10" stroke-linecap="round"/>
<defs>
<linearGradient id="paint0_linear_2816_66904" x1="0.5" y1="632.131" x2="633.5" y2="632.131" gradientUnits="userSpaceOnUse">
<stop stop-color="#171B38"/>
<stop offset="0.8" stop-color="#009ADE"/>
<stop offset="1" stop-color="#80BC00"/>
</linearGradient>
<linearGradient id="paint1_linear_2816_66904" x1="0.5" y1="592.391" x2="633.5" y2="592.391" gradientUnits="userSpaceOnUse">
<stop stop-color="#171B38"/>
<stop offset="0.8" stop-color="#009ADE"/>
<stop offset="1" stop-color="#80BC00"/>
</linearGradient>
<linearGradient id="paint2_linear_2816_66904" x1="0.5" y1="614.354" x2="633.5" y2="614.354" gradientUnits="userSpaceOnUse">
<stop stop-color="#171B38"/>
<stop offset="0.8" stop-color="#009ADE"/>
<stop offset="1" stop-color="#80BC00"/>
</linearGradient>
<linearGradient id="paint3_linear_2816_66904" x1="0.5" y1="584.856" x2="633.5" y2="584.856" gradientUnits="userSpaceOnUse">
<stop stop-color="#171B38"/>
<stop offset="0.8" stop-color="#009ADE"/>
<stop offset="1" stop-color="#80BC00"/>
</linearGradient>
<linearGradient id="paint4_linear_2816_66904" x1="0.5" y1="589.958" x2="633.5" y2="589.958" gradientUnits="userSpaceOnUse">
<stop stop-color="#171B38"/>
<stop offset="0.8" stop-color="#009ADE"/>
<stop offset="1" stop-color="#80BC00"/>
</linearGradient>
<linearGradient id="paint5_linear_2816_66904" x1="0.5" y1="573.442" x2="633.5" y2="573.442" gradientUnits="userSpaceOnUse">
<stop stop-color="#171B38"/>
<stop offset="0.8" stop-color="#009ADE"/>
<stop offset="1" stop-color="#80BC00"/>
</linearGradient>
<linearGradient id="paint6_linear_2816_66904" x1="0.5" y1="555.271" x2="633.5" y2="555.271" gradientUnits="userSpaceOnUse">
<stop stop-color="#171B38"/>
<stop offset="0.8" stop-color="#009ADE"/>
<stop offset="1" stop-color="#80BC00"/>
</linearGradient>
<linearGradient id="paint7_linear_2816_66904" x1="0.5" y1="555.468" x2="633.5" y2="555.468" gradientUnits="userSpaceOnUse">
<stop stop-color="#171B38"/>
<stop offset="0.8" stop-color="#009ADE"/>
<stop offset="1" stop-color="#80BC00"/>
</linearGradient>
<linearGradient id="paint8_linear_2816_66904" x1="0.5" y1="504.451" x2="633.5" y2="504.451" gradientUnits="userSpaceOnUse">
<stop stop-color="#171B38"/>
<stop offset="0.8" stop-color="#009ADE"/>
<stop offset="1" stop-color="#80BC00"/>
</linearGradient>
<linearGradient id="paint9_linear_2816_66904" x1="0.5" y1="526.995" x2="633.5" y2="526.995" gradientUnits="userSpaceOnUse">
<stop stop-color="#171B38"/>
<stop offset="0.8" stop-color="#009ADE"/>
<stop offset="1" stop-color="#80BC00"/>
</linearGradient>
<linearGradient id="paint10_linear_2816_66904" x1="0.5" y1="587.417" x2="633.5" y2="587.417" gradientUnits="userSpaceOnUse">
<stop stop-color="#171B38"/>
<stop offset="0.8" stop-color="#009ADE"/>
<stop offset="1" stop-color="#80BC00"/>
</linearGradient>
<linearGradient id="paint11_linear_2816_66904" x1="0.5" y1="478.963" x2="633.5" y2="478.963" gradientUnits="userSpaceOnUse">
<stop stop-color="#171B38"/>
<stop offset="0.8" stop-color="#009ADE"/>
<stop offset="1" stop-color="#80BC00"/>
</linearGradient>
<linearGradient id="paint12_linear_2816_66904" x1="0.5" y1="593.287" x2="633.5" y2="593.287" gradientUnits="userSpaceOnUse">
<stop stop-color="#171B38"/>
<stop offset="0.8" stop-color="#009ADE"/>
<stop offset="1" stop-color="#80BC00"/>
</linearGradient>
<linearGradient id="paint13_linear_2816_66904" x1="0.5" y1="387.626" x2="633.5" y2="387.626" gradientUnits="userSpaceOnUse">
<stop stop-color="#171B38"/>
<stop offset="0.8" stop-color="#009ADE"/>
<stop offset="1" stop-color="#80BC00"/>
</linearGradient>
<linearGradient id="paint14_linear_2816_66904" x1="0.5" y1="599.157" x2="633.5" y2="599.157" gradientUnits="userSpaceOnUse">
<stop stop-color="#171B38"/>
<stop offset="0.8" stop-color="#009ADE"/>
<stop offset="1" stop-color="#80BC00"/>
</linearGradient>
<linearGradient id="paint15_linear_2816_66904" x1="0.5" y1="166.679" x2="633.5" y2="166.679" gradientUnits="userSpaceOnUse">
<stop stop-color="#171B38"/>
<stop offset="0.8" stop-color="#009ADE"/>
<stop offset="1" stop-color="#80BC00"/>
</linearGradient>
<linearGradient id="paint16_linear_2816_66904" x1="0.5" y1="605.027" x2="633.5" y2="605.027" gradientUnits="userSpaceOnUse">
<stop stop-color="#171B38"/>
<stop offset="0.8" stop-color="#009ADE"/>
<stop offset="1" stop-color="#80BC00"/>
</linearGradient>
<linearGradient id="paint17_linear_2816_66904" x1="0.5" y1="2177.5" x2="633.5" y2="2177.5" gradientUnits="userSpaceOnUse">
<stop stop-color="#171B38"/>
<stop offset="0.8" stop-color="#009ADE"/>
<stop offset="1" stop-color="#80BC00"/>
</linearGradient>
<linearGradient id="paint18_linear_2816_66904" x1="-nan" y1="-nan" x2="-nan" y2="-nan" gradientUnits="userSpaceOnUse">
<stop stop-color="#171B38"/>
<stop offset="0.8" stop-color="#009ADE"/>
<stop offset="1" stop-color="#80BC00"/>
</linearGradient>
<linearGradient id="paint19_linear_2816_66904" x1="0.5" y1="2446.57" x2="633.5" y2="2446.57" gradientUnits="userSpaceOnUse">
<stop stop-color="#171B38"/>
<stop offset="0.8" stop-color="#009ADE"/>
<stop offset="1" stop-color="#80BC00"/>
</linearGradient>
<linearGradient id="paint20_linear_2816_66904" x1="0.5" y1="616.855" x2="633.5" y2="616.855" gradientUnits="userSpaceOnUse">
<stop stop-color="#171B38"/>
<stop offset="0.8" stop-color="#009ADE"/>
<stop offset="1" stop-color="#80BC00"/>
</linearGradient>
<linearGradient id="paint21_linear_2816_66904" x1="0.5" y1="-78.831" x2="633.5" y2="-78.831" gradientUnits="userSpaceOnUse">
<stop stop-color="#171B38"/>
<stop offset="0.8" stop-color="#009ADE"/>
<stop offset="1" stop-color="#80BC00"/>
</linearGradient>
<linearGradient id="paint22_linear_2816_66904" x1="0.5" y1="622.735" x2="633.5" y2="622.735" gradientUnits="userSpaceOnUse">
<stop stop-color="#171B38"/>
<stop offset="0.8" stop-color="#009ADE"/>
<stop offset="1" stop-color="#80BC00"/>
</linearGradient>
<linearGradient id="paint23_linear_2816_66904" x1="0.5" y1="153.846" x2="633.5" y2="153.846" gradientUnits="userSpaceOnUse">
<stop stop-color="#171B38"/>
<stop offset="0.8" stop-color="#009ADE"/>
<stop offset="1" stop-color="#80BC00"/>
</linearGradient>
<linearGradient id="paint24_linear_2816_66904" x1="0.5" y1="628.703" x2="633.5" y2="628.703" gradientUnits="userSpaceOnUse">
<stop stop-color="#171B38"/>
<stop offset="0.8" stop-color="#009ADE"/>
<stop offset="1" stop-color="#80BC00"/>
</linearGradient>
<linearGradient id="paint25_linear_2816_66904" x1="0.5" y1="257.011" x2="633.5" y2="257.011" gradientUnits="userSpaceOnUse">
<stop stop-color="#171B38"/>
<stop offset="0.8" stop-color="#009ADE"/>
<stop offset="1" stop-color="#80BC00"/>
</linearGradient>
<linearGradient id="paint26_linear_2816_66904" x1="0.5" y1="634.573" x2="633.5" y2="634.573" gradientUnits="userSpaceOnUse">
<stop stop-color="#171B38"/>
<stop offset="0.8" stop-color="#009ADE"/>
<stop offset="1" stop-color="#80BC00"/>
</linearGradient>
<linearGradient id="paint27_linear_2816_66904" x1="0.5" y1="316.872" x2="633.5" y2="316.872" gradientUnits="userSpaceOnUse">
<stop stop-color="#171B38"/>
<stop offset="0.8" stop-color="#009ADE"/>
<stop offset="1" stop-color="#80BC00"/>
</linearGradient>
<linearGradient id="paint28_linear_2816_66904" x1="0.5" y1="36.9904" x2="633.5" y2="36.9904" gradientUnits="userSpaceOnUse">
<stop stop-color="#171B38"/>
<stop offset="0.8" stop-color="#009ADE"/>
<stop offset="1" stop-color="#80BC00"/>
</linearGradient>
<linearGradient id="paint29_linear_2816_66904" x1="0.5" y1="357.134" x2="633.5" y2="357.134" gradientUnits="userSpaceOnUse">
<stop stop-color="#171B38"/>
<stop offset="0.8" stop-color="#009ADE"/>
<stop offset="1" stop-color="#80BC00"/>
</linearGradient>
<linearGradient id="paint30_linear_2816_66904" x1="0.5" y1="99.7072" x2="633.5" y2="99.7072" gradientUnits="userSpaceOnUse">
<stop stop-color="#171B38"/>
<stop offset="0.8" stop-color="#009ADE"/>
<stop offset="1" stop-color="#80BC00"/>
</linearGradient>
<linearGradient id="paint31_linear_2816_66904" x1="0.5" y1="386.877" x2="633.5" y2="386.877" gradientUnits="userSpaceOnUse">
<stop stop-color="#171B38"/>
<stop offset="0.8" stop-color="#009ADE"/>
<stop offset="1" stop-color="#80BC00"/>
</linearGradient>
<linearGradient id="paint32_linear_2816_66904" x1="0.5" y1="146.055" x2="633.5" y2="146.055" gradientUnits="userSpaceOnUse">
<stop stop-color="#171B38"/>
<stop offset="0.8" stop-color="#009ADE"/>
<stop offset="1" stop-color="#80BC00"/>
</linearGradient>
<linearGradient id="paint33_linear_2816_66904" x1="0.5" y1="410.199" x2="633.5" y2="410.199" gradientUnits="userSpaceOnUse">
<stop stop-color="#171B38"/>
<stop offset="0.8" stop-color="#009ADE"/>
<stop offset="1" stop-color="#80BC00"/>
</linearGradient>
<linearGradient id="paint34_linear_2816_66904" x1="0.5" y1="182.279" x2="633.5" y2="182.279" gradientUnits="userSpaceOnUse">
<stop stop-color="#171B38"/>
<stop offset="0.8" stop-color="#009ADE"/>
<stop offset="1" stop-color="#80BC00"/>
</linearGradient>
<linearGradient id="paint35_linear_2816_66904" x1="0.5" y1="429.384" x2="633.5" y2="429.384" gradientUnits="userSpaceOnUse">
<stop stop-color="#171B38"/>
<stop offset="0.8" stop-color="#009ADE"/>
<stop offset="1" stop-color="#80BC00"/>
</linearGradient>
<linearGradient id="paint36_linear_2816_66904" x1="0.5" y1="211.786" x2="633.5" y2="211.786" gradientUnits="userSpaceOnUse">
<stop stop-color="#171B38"/>
<stop offset="0.8" stop-color="#009ADE"/>
<stop offset="1" stop-color="#80BC00"/>
</linearGradient>
</defs>
</svg>
