<svg width="70" height="54" viewBox="0 0 70 54" fill="none" xmlns="http://www.w3.org/2000/svg">
<g clip-path="url(#clip0_2966_276)">
<path d="M67.3395 54.0001H0.240523C-0.12957 54.0001 -0.432373 53.6973 -0.432373 53.3272C-0.432373 52.9571 -0.12957 52.6543 0.240523 52.6543H67.3283C67.6984 52.6543 68.0012 52.9571 68.0012 53.3272C68.0012 53.6973 67.6984 54.0001 67.3283 54.0001H67.3395Z" fill="url(#paint0_linear_2966_276)"/>
<path d="M6.29659 14.3887L3.91903 8.11959H2.29286V14.3887H0.543335V0.336426H4.17697C6.21809 0.336426 7.94519 1.39063 7.94519 4.17194C7.94519 6.95324 6.65547 7.54763 5.57884 7.78315L8.20313 14.3887H6.29659ZM3.8966 1.85044H2.29286V6.72894H3.94146C5.28725 6.72894 6.18444 5.83175 6.18444 4.25044C6.18444 2.66913 5.02931 1.85044 3.8966 1.85044Z" fill="#00205C"/>
<path d="M9.90784 14.3888V0.336426H15.8181V1.92895H11.6349V6.35885H15.549V7.85044H11.6349V12.7962H16.02V14.4H9.90784V14.3888Z" fill="#00205C"/>
<path d="M25.7657 1.68224L24.6554 2.89346C24.0835 2.04112 23.2872 1.62617 22.39 1.62617C20.2479 1.62617 19.2386 4.26168 19.2386 7.34579C19.2386 10.4299 20.3265 13.043 22.5358 13.043C24.7451 13.043 23.8704 12.8635 24.218 12.572V8.22056H22.3676V6.6729H25.9451V13.5252C25.1265 14.1981 24.061 14.6579 22.4909 14.6579C19.2722 14.6579 17.3545 11.7421 17.3545 7.35701C17.3545 2.97196 19.205 0 22.3115 0C25.418 0 24.9919 0.560748 25.7657 1.68224Z" fill="#00205C"/>
<path d="M28.3115 14.3887V0.336426H30.0947V14.3887H28.3115Z" fill="#00205C"/>
<path d="M37.0031 14.7252C33.9863 14.7252 32.1807 11.7533 32.1807 7.34579C32.1807 2.93832 33.9302 0 37.0031 0C40.076 0 41.8031 2.93832 41.8031 7.34579C41.8031 11.7533 39.9975 14.7252 37.0031 14.7252ZM37.0031 1.60374C35.0405 1.60374 34.0648 4.14953 34.0648 7.33457C34.0648 10.5196 35.0405 13.0654 37.0031 13.0654C38.9657 13.0654 39.919 10.5196 39.919 7.33457C39.919 4.14953 38.9096 1.60374 37.0031 1.60374Z" fill="#00205C"/>
<path d="M50.0798 14.3887L45.5938 3.48782H45.5378V14.3887H43.8892V0.336426H46.0312L50.4611 11.2486H50.5172V0.336426H52.1658V14.3887H50.0798Z" fill="#00205C"/>
<path d="M60.9583 14.3887L60.162 11.0916H56.091L55.2723 14.3887H53.4667L57.0106 0.336426H59.3769L62.8312 14.3887H60.9695H60.9583ZM58.1994 2.00745H58.1209L56.3377 9.68969H59.9265L58.1994 2.00745Z" fill="#00205C"/>
<path d="M64.1321 14.3887V0.336426H65.9153V12.7177H69.8853V14.3887H64.1321Z" fill="#00205C"/>
<path d="M7.22744 31.5252V25.0318H2.32651V31.5252H0.543335V17.4729H2.32651V23.4505H7.22744V17.4729H9.01062V31.5252H7.22744Z" fill="#00205C"/>
<path d="M11.5228 31.5252V17.4729H17.4331V19.0654H13.2499V23.4953H17.1639V24.9869H13.2499V29.9327H17.635V31.5364H11.5228V31.5252Z" fill="#00205C"/>
<path d="M26.0686 31.5252L25.2724 28.228H21.2013L20.3826 31.5252H18.577L22.1097 17.4729H24.4761L27.9303 31.5252H26.0686ZM23.3097 19.1439H23.2312L21.4481 26.8262H25.0368L23.3097 19.1439Z" fill="#00205C"/>
<path d="M29.2423 31.5252V17.4729H31.0255V29.8542H34.9956V31.5252H29.2423Z" fill="#00205C"/>
<path d="M38.674 19.0094V31.5365H36.9021V19.0094H34.2217V17.4841H41.3432V19.0094H38.6628H38.674Z" fill="#00205C"/>
<path d="M49.5862 31.5252V25.0318H44.6853V31.5252H42.9021V17.4729H44.6853V23.4505H49.5862V17.4729H51.3694V31.5252H49.5862Z" fill="#00205C"/>
<path d="M3.76203 48.6729H0.543335V34.6206H3.77324C7.09287 34.6206 9.03305 37.1215 9.03305 41.6636C9.03305 46.2056 7.07044 48.6729 3.75081 48.6729H3.76203ZM3.76203 36.1907H2.3153V47.1028H3.76203C5.74707 47.1028 7.24988 45.3197 7.24988 41.6636C7.24988 38.0075 5.74707 36.1907 3.76203 36.1907Z" fill="#00205C"/>
<path d="M16.8162 48.6729L16.0199 45.3757H11.9489L11.1302 48.6729H9.32458L12.8573 34.6206H15.2236L18.6779 48.6729H16.8162ZM14.0573 36.2916H13.9788L12.1956 43.9739H15.7844L14.0573 36.2916Z" fill="#00205C"/>
<path d="M22.3004 36.1458V48.6729H20.5284V36.1458H17.848V34.6206H24.9695V36.1458H22.2891H22.3004Z" fill="#00205C"/>
<path d="M31.5303 48.6729L30.734 45.3757H26.663L25.8443 48.6729H24.0387L27.5714 34.6206H29.9378L33.392 48.6729H31.5303ZM28.7714 36.2916H28.6929L26.9097 43.9739H30.4985L28.7714 36.2916Z" fill="#00205C"/>
<path d="M44.4049 48.6729V42.1795H39.504V48.6729H37.7208V34.6206H39.504V40.5982H44.4049V34.6206H46.1881V48.6729H44.4049Z" fill="#00205C"/>
<path d="M52.8386 49.0094C49.7433 49.0094 48.6891 46.6879 48.6891 43.8505V34.6206H50.4723V43.6711C50.4723 45.5552 50.9657 47.3608 52.8723 47.3608C54.7788 47.3608 55.2498 45.5552 55.2498 43.6711V34.6206H57.033V43.8505C57.033 46.6879 55.9452 49.0094 52.8274 49.0094H52.8386Z" fill="#00205C"/>
<path d="M64.7488 41.2935C65.7806 41.4954 67.1488 42.5384 67.1488 44.8038C67.1488 47.0692 65.0292 48.6729 63.3357 48.6729H59.545V34.6206H62.9207C64.5245 34.6206 66.6665 35.3159 66.6665 38.0972C66.6665 40.8785 65.7357 40.8785 64.7376 41.2486V41.2935H64.7488ZM62.7189 36.1234H61.2273V40.643H62.7525C63.8292 40.643 64.9955 40.0038 64.9955 38.3552C64.9955 36.7066 63.8628 36.1122 62.7077 36.1122L62.7189 36.1234ZM62.8871 42.0673H61.2385V47.1701H62.9656C64.3002 47.1701 65.388 46.4187 65.388 44.6916C65.388 42.9645 64.0422 42.0673 62.8871 42.0673Z" fill="#00205C"/>
</g>
<defs>
<linearGradient id="paint0_linear_2966_276" x1="-0.432373" y1="53.3272" x2="68.0124" y2="53.3272" gradientUnits="userSpaceOnUse">
<stop stop-color="white"/>
<stop offset="0.8" stop-color="#009ADE"/>
<stop offset="1" stop-color="#80BC00"/>
</linearGradient>
<clipPath id="clip0_2966_276">
<rect width="69.342" height="54" fill="white" transform="translate(0.543335)"/>
</clipPath>
</defs>
</svg>
