<svg width="132" height="64" viewBox="0 0 132 64" fill="none" xmlns="http://www.w3.org/2000/svg">
<path d="M37.181 7.39485C38.0313 8.45885 39.5724 9.04406 40.4759 10.1081C39.8382 7.02244 37.4468 4.52203 34.6302 3.88362C36.0119 4.89443 36.3308 6.33084 37.181 7.39485ZM3.38248 15.2153C5.2956 11.0125 8.21843 11.8637 9.44071 7.87365C8.74986 9.09726 5.61446 9.62926 4.12647 12.7681C4.87046 10.9061 4.49847 8.03325 5.77388 6.43724C1.94763 9.25686 3.5419 13.7789 3.38248 15.2153ZM6.88987 25.3234C7.26187 26.9726 6.19902 29.3666 7.84644 31.601C6.14588 29.739 2.58534 29.207 1.15049 26.3874C2.95734 33.4098 7.68701 31.9734 9.81271 33.463C8.05901 30.9626 9.49385 29.2602 6.88987 25.3234ZM6.30531 29.739C5.24246 25.8022 7.10244 24.4722 5.72074 20.6949C5.56131 22.8229 4.17961 23.8337 5.13617 27.7174C3.43562 24.4189 0.83164 23.1953 0.0876465 20.9609C0.140789 27.1322 5.08303 28.0366 6.30531 29.739ZM13.9047 36.2826C12.4698 34.261 13.4264 33.1438 9.33442 29.473C10.1847 30.803 9.28128 32.5054 12.0447 35.1122C9.33442 33.5162 5.61446 34.2078 3.86076 32.0798C6.94302 37.985 12.3635 35.591 13.9047 36.2826ZM33.6736 35.1122C36.437 32.5054 35.5336 30.803 36.3839 29.473C32.2919 33.1438 33.3016 34.261 31.8137 36.2826C33.3548 35.5378 38.7753 37.985 41.8576 32.0798C40.1039 34.2078 36.3839 33.5162 33.6736 35.1122ZM37.9782 31.601C39.6256 29.3134 38.5627 26.9726 38.9347 25.3234C36.3308 29.2602 37.7656 30.9626 36.0119 33.463C38.1376 31.9202 42.8673 33.4098 44.6741 26.3874C43.1861 29.2602 39.6256 29.739 37.9782 31.601ZM31.4417 36.6018C29.8474 36.1762 28.2 35.9634 26.9777 35.9102C25.4366 35.857 24.108 36.1762 22.8857 36.6018C21.7166 36.1762 20.3349 35.857 18.7938 35.9102C17.5715 35.9634 15.9241 36.1762 14.3298 36.6018C11.8853 37.2402 9.75956 37.7722 7.89958 36.8146C9.65328 38.4106 11.7258 38.9426 14.7549 38.6234C17.2526 38.3574 19.2721 37.1338 21.6103 37.1338C21.6635 37.1338 21.6635 37.1338 21.7166 37.1338C19.2189 38.4106 17.8372 40.1662 17.8372 40.1662L18.9532 40.3259C18.9532 40.3259 20.1223 37.9318 22.8857 37.2934C25.6491 37.9318 26.8183 40.3259 26.8183 40.3259L27.9343 40.1662C27.9343 40.1662 26.5526 38.4106 24.0549 37.1338C24.108 37.1338 24.108 37.1338 24.1612 37.1338C26.4994 37.1338 28.5188 38.3574 31.0165 38.6234C33.9925 38.9426 36.065 38.3574 37.8719 36.8146C36.0119 37.7722 33.8862 37.2402 31.4417 36.6018ZM5.88017 16.4389C4.87046 18.4073 3.32933 18.8329 3.48876 22.8761C2.63848 19.3117 0.61907 17.9817 0.61907 15.6941C-0.815774 21.6525 2.95734 22.3441 3.96704 24.8446C3.80761 21.2801 6.09274 20.5353 5.88017 16.4389ZM7.31501 11.8637C6.94302 12.3425 6.73045 12.5553 5.77388 13.3533C4.49847 14.4173 3.48876 15.8005 3.01048 17.8221C3.11676 15.6409 1.73506 12.5021 2.63848 10.2145C-0.815774 15.1089 2.85105 18.0349 2.95734 19.8437C3.9139 16.3857 5.98645 16.3857 7.31501 11.8637ZM42.761 17.8221C42.3359 15.8005 41.3261 14.4173 39.9976 13.3533C39.041 12.5553 38.8285 12.3425 38.4565 11.8637C39.785 16.3857 41.8576 16.4389 42.761 19.8437C42.8673 18.0881 46.5341 15.1089 43.0798 10.2145C43.9833 12.5021 42.6547 15.6409 42.761 17.8221ZM45.6838 20.9609C44.9398 23.1953 42.3359 24.4189 40.6353 27.7174C41.5919 23.8337 40.157 22.8229 40.0507 20.6949C38.6159 24.4722 40.4759 25.8022 39.4662 29.739C40.6884 28.0366 45.6307 27.1322 45.6838 20.9609ZM39.8913 16.4389C39.6787 20.5353 41.9639 21.2269 41.8576 24.8446C42.8141 22.3441 46.5872 21.6525 45.2055 15.6941C45.2055 17.9817 43.1861 19.3117 42.3359 22.8761C42.4953 18.8329 40.901 18.4073 39.8913 16.4389ZM8.59043 7.39485C9.44071 6.33084 9.75956 4.89443 11.1413 3.88362C8.32472 4.46883 5.93331 7.02244 5.2956 10.1081C6.19902 9.04406 7.74015 8.40565 8.59043 7.39485ZM36.3839 7.87365C37.6062 11.9169 40.4759 11.0125 42.4421 15.2153C42.2296 13.7789 43.877 9.25686 40.0507 6.49044C41.3261 8.03325 40.9542 10.9061 41.6981 12.8213C40.2102 9.62926 37.0748 9.09726 36.3839 7.87365ZM26.5526 10.1081C25.8086 9.78886 25.0646 9.57606 24.2674 9.46966C24.2674 9.62926 24.2674 9.78886 24.2674 10.0017C25.0114 10.1081 25.7023 10.3209 26.3931 10.5869C26.4463 10.4805 26.4994 10.3209 26.5526 10.1081ZM25.968 5.16043L26.1274 5.00083L25.8086 4.89443H25.0114L24.7989 5.05403L24.3206 5.00083V5.10723C24.5863 5.10723 24.9051 5.16043 25.1177 5.21363L25.4897 5.16043H25.968ZM24.48 21.8653C24.48 21.7589 24.3206 21.5993 24.0549 21.4929H24.0017C24.0017 21.5993 24.0017 22.1313 24.0017 22.3973C24.2674 22.2377 24.48 22.0781 24.48 21.8653ZM15.4989 12.0233C15.4989 11.9169 15.5521 11.8105 15.5521 11.7573C15.4458 11.7573 15.3395 11.8105 15.2332 11.8105L15.4989 12.0233ZM22.8857 34.793C31.6011 34.793 38.669 27.7174 38.669 18.9925C38.669 10.7997 32.4514 4.09643 24.48 3.29842C24.48 3.35162 24.48 3.35162 24.48 3.40482C24.4269 3.56442 24.4269 3.67082 24.3737 3.83042C27.9343 4.20283 31.1228 5.74564 33.5674 8.13965L31.8137 9.89526L31.8668 9.57606L31.6542 9.46966H31.3354L31.3885 9.25686L31.2291 8.51205L30.804 8.03325L29.4223 7.28844L29.316 7.39485L29.0503 7.44805C29.5285 8.13965 29.7942 8.93765 29.7942 9.73566C29.7942 9.84206 29.7942 9.94846 29.7942 10.0549L30.4851 10.9061L30.1662 10.9593L30.3788 11.2785L29.7942 11.8637L29.5285 11.3849C29.4223 11.7041 29.2628 12.0233 29.1034 12.2893C29.1565 12.3425 29.2097 12.3957 29.2628 12.3957L27.456 14.2045C27.3497 14.0981 27.2434 13.9917 27.084 13.8853C26.9246 13.9917 26.712 14.0449 26.5526 14.0981C26.6057 14.1513 26.6588 14.1513 26.712 14.2045L26.6057 14.3109L26.3931 14.4173L26.2868 14.6301H26.1274L25.7554 14.7365L25.8617 14.8961H26.1274H26.2868V14.7897L26.4463 14.7365L26.4994 14.6301L26.7651 14.5769H26.9777C27.0308 14.6301 27.0308 14.6301 27.084 14.6833L26.2868 15.4281L26.2337 15.3749L25.4897 15.4813L25.3303 15.6409H25.1709L25.6491 15.1621L25.4897 15.0557L25.0646 15.6409H25.1709V15.8537L25.3303 15.9069L25.3834 16.1197H25.0646L24.7989 16.1729L24.108 15.8537C24.108 15.8537 24.0549 17.6625 24.0549 18.5669C25.6491 19.0989 27.2966 19.8437 27.2966 21.8653C27.2966 22.7697 26.9246 23.4613 26.1806 23.9933C26.1806 23.9933 26.1806 23.9933 26.1274 23.9933C26.1274 23.9933 26.0743 23.9933 26.0743 24.0465C25.4366 24.4722 24.6394 24.685 23.8954 24.8978V26.281C25.0114 26.8662 26.3931 27.6642 26.2868 30.005C26.2868 30.5902 26.0211 30.7498 25.8617 30.803C25.224 30.9626 24.5331 31.069 23.8423 31.1222C23.8423 31.2818 23.8423 31.4946 23.8423 31.6542C26.8714 31.4414 29.6348 30.1646 31.7074 28.1962L33.5142 30.005C30.7508 32.665 27.0308 34.261 22.9389 34.261C18.8469 34.261 15.1269 32.665 12.4167 30.0582L14.2767 28.1962C16.3492 30.1646 19.0595 31.3882 22.0355 31.6542C22.0355 31.4946 22.0355 31.335 22.0355 31.1222C19.1658 30.9094 16.6149 29.6858 14.6487 27.8238L15.1269 27.345L15.8178 27.3982L16.1898 27.0258L17.1464 27.079L17.3058 26.7598L17.1464 26.6002C18.5281 27.611 20.1223 28.3026 21.9292 28.5154C21.9292 28.3026 21.9292 28.143 21.9292 27.9834C19.9629 27.7706 18.1561 26.9194 16.7744 25.6426L18.6343 23.7805C19.0595 24.153 19.5909 24.5254 20.1223 24.7914C20.1755 24.6318 20.2286 24.4722 20.2818 24.3125C19.8035 24.0997 19.3783 23.7805 18.9532 23.4081L20.8132 21.5461C21.0789 21.7589 21.4509 21.9717 21.7697 22.0781C21.7697 21.9185 21.7697 21.7057 21.7697 21.5461C21.5572 21.4397 21.3446 21.3333 21.1852 21.1737L21.7166 20.6417C21.5572 20.5885 21.3446 20.5353 21.1852 20.4821L20.8132 20.9077C20.6538 20.6949 20.4943 20.4821 20.388 20.2693C20.0692 20.1097 19.7503 19.9501 19.4846 19.7905C18.3686 19.0457 17.7841 17.9817 17.7841 16.6517C17.7841 15.6409 18.0498 14.8961 18.5281 14.2577L16.7212 12.4489C18.0498 11.1721 19.7503 10.3209 21.6103 10.0549C21.6103 9.89526 21.6103 9.68246 21.6103 9.52286C19.5909 9.78886 17.7841 10.7465 16.3492 12.0765L16.0304 11.7573C15.9772 11.8637 15.8709 12.0233 15.7647 12.2361L15.9772 12.4489C14.383 14.1513 13.4264 16.3857 13.3732 18.8329H10.7693C10.8224 15.6409 12.0978 12.7681 14.1172 10.5869L14.9675 11.4381C15.0207 11.4381 15.0207 11.4381 15.0738 11.4381C15.2332 11.4381 15.3927 11.3849 15.5521 11.2785L14.4892 10.2145C15.0207 9.68246 15.6584 9.20366 16.2961 8.77805C16.3492 8.61845 16.4024 8.45885 16.4024 8.40565C16.4555 8.35245 16.6149 8.13965 16.7744 7.87365C15.7647 8.40565 14.8612 9.09726 14.0641 9.89526L12.2573 8.08645C14.6487 5.74564 17.8372 4.20283 21.3446 3.83042C21.3446 3.77722 21.3446 3.72402 21.3446 3.72402C21.3446 3.61762 21.2915 3.45802 21.2915 3.35162C13.3201 4.09643 7.15559 10.8529 7.15559 18.9925C7.15559 27.7174 14.2235 34.793 22.8857 34.793ZM33.9394 8.45885C36.5433 11.1721 38.1376 14.8429 38.1376 18.8329H35.5336C35.5336 16.8645 35.0022 14.9493 34.2051 13.3001V13.2469L34.3645 13.3533L34.4176 13.1937L33.9394 12.3957L33.4079 11.6509L32.7702 11.1189C32.5577 10.8529 32.2919 10.5869 32.0794 10.3209L33.9394 8.45885ZM30.6445 11.7573L31.2822 11.8105L31.4417 11.9701L31.3354 12.2361L32.1857 12.7681H32.3451L33.4611 14.0449L33.9394 13.8853C34.6302 15.3749 35.0553 17.0773 35.0553 18.8329H32.4514C32.4514 18.1413 32.3451 17.5029 32.1857 16.8645L32.2919 16.7049L32.4514 15.9069L32.3451 15.0557L32.0262 14.0449L31.2822 12.9809L31.4417 13.0873L31.5479 12.9809L30.9634 12.6085L30.9102 12.7149L31.4948 13.5661L31.8137 14.2577L32.0262 14.9493L32.0794 15.4281L32.1857 16.1729H31.9731C31.9731 16.1729 31.7074 15.6941 31.6542 15.5345L31.7605 15.3749L31.5479 15.0557V14.7365L31.3885 14.5237H31.1759C31.1228 14.4173 31.0165 14.2577 30.9634 14.1513L31.1228 14.2045L31.1759 14.1513L31.1228 13.9917L31.2822 13.8853L31.2291 13.7789L31.0697 13.8321L31.1759 13.4597L31.0165 13.3533L30.8571 13.6725C30.5914 13.2469 30.2725 12.8213 29.9005 12.4489L30.6445 11.7573ZM30.1131 17.8753L30.5914 17.6093L31.0697 17.5561L31.1759 17.3433L31.4417 17.1837L31.5479 16.9709L31.6542 16.5985C31.7074 16.7581 31.7074 16.8645 31.7605 17.0241L31.4948 17.7689V18.0349L31.8668 17.5561C31.9199 17.9817 31.9731 18.4605 31.9731 18.9393H29.688L29.6348 18.6201L29.9005 18.4073L29.9537 18.3009L30.06 18.1945L30.3788 18.1413L30.432 17.9817L30.1131 17.8753ZM27.0308 16.0665L27.2434 16.0133V15.9601L27.0308 15.8005L27.084 15.3217L27.3497 15.0557C27.5091 15.2685 27.6686 15.4813 27.828 15.6941L27.7748 15.9601L27.5091 15.8005L27.2966 15.8537L27.4028 16.0133H27.5091L27.4028 16.2793L27.3497 16.1729L27.0308 16.0665ZM28.0405 24.685L27.456 24.5254L27.2966 24.5786L26.9777 24.3125L26.6588 24.2593C26.8183 24.1529 26.9246 24.0465 27.084 23.9401L27.5623 24.2593L27.9343 24.4722L28.0937 24.6318L28.0405 24.685ZM27.7217 14.6833L29.5817 12.8213C30.0068 13.3001 30.3788 13.8321 30.6977 14.3641L30.4851 14.4173V14.8429L31.1759 15.2685C31.3354 15.6409 31.4948 16.0133 31.6011 16.4389L31.4948 16.5985L31.2291 16.7581L31.1759 17.1305L31.0165 17.2369L30.8571 17.3965L30.6977 17.3433H30.432L30.5914 17.1305L30.6977 16.5985L30.8571 16.4921L30.3788 16.0665L30.0068 16.1729L29.9005 16.5453L29.688 16.8113L29.4223 16.5985L29.316 16.3857L29.4754 16.2793L29.5285 16.4389L29.6348 16.3857L29.5817 16.1729H29.4223V16.2793H29.316L28.7845 15.5877L28.6251 15.4281L28.6783 15.3749L28.8377 15.3217L28.6783 15.2685L28.4657 15.3217L28.572 15.4813H28.3063C28.1468 15.1621 27.9343 14.8961 27.7217 14.6833ZM28.6783 24.4722L28.4125 24.2062L28.6251 23.9401L28.8908 23.4613L28.7845 23.3017L28.944 22.9293V22.6101L28.7845 22.2909L28.572 22.1845L28.4657 22.3973L28.3063 22.3441C28.5188 22.0249 28.7314 21.7589 28.8377 21.3865L29.0503 21.2801L29.1565 21.1205L29.2097 21.1737L29.3691 20.9609L29.2628 20.8013L29.3691 20.7481L29.5817 20.8545H30.0068L30.2725 20.7481L30.9102 20.5885L30.804 20.3757L30.7508 20.1097L31.0697 20.2693L31.1759 20.2161L31.1228 19.9501L30.6977 20.1097L30.2194 20.0033L29.8474 19.3117H31.9731C31.8668 21.5993 30.9634 23.6741 29.4754 25.217L29.1565 25.0042L29.2628 24.6318L29.0503 23.8337L28.6783 24.4722ZM28.9971 29.5262L29.2628 28.9942L29.1565 28.7814L29.5285 28.4622V28.2494L29.2097 28.0366L29.4754 27.5046L29.8474 27.0258L29.4754 26.6002H29.2097L29.0503 26.3342C29.2097 26.2278 29.3691 26.0682 29.4754 25.9618L31.3354 27.8238C30.5914 28.4622 29.8474 29.0474 28.9971 29.5262ZM31.2822 27.079L31.4948 26.8662L31.2822 25.8554L31.1228 25.8022L31.2291 25.6426L30.804 25.483L30.6977 25.8554L30.6445 26.3342L30.5382 26.4406L29.7411 25.6426C31.3354 23.9933 32.2919 21.8121 32.3982 19.3649H35.0022C34.8959 22.5037 33.6205 25.3766 31.6011 27.4514L31.2822 27.079ZM32.0262 27.8238C34.1519 25.6426 35.4805 22.6633 35.5868 19.3649H38.1907C38.0845 23.3549 36.4902 26.9726 33.8862 29.6858L32.0262 27.8238ZM16.4024 25.2702C16.1898 25.0574 16.0304 24.8978 15.8709 24.685L15.9241 24.0465L15.6584 23.4081L15.6052 22.3973L15.2864 21.8121L15.3395 21.4397L15.0207 20.7481L14.7018 20.5885L14.8081 20.2161L14.6487 19.8969L14.8081 19.5777H15.1801L15.2864 19.3649H15.8709L15.9772 19.5245L15.8709 20.1629L15.8178 20.2693L16.0304 20.7481L15.8709 20.8545L15.7647 20.7481H15.7115L15.8178 21.0673L15.9772 21.3865H16.0835L16.1367 21.0673L16.0304 20.9609V20.7481V20.3225L16.1367 19.5777L16.0304 19.3649H16.4555C16.5618 20.9609 17.1995 22.3973 18.2623 23.4613L16.4024 25.2702ZM14.7018 20.2161L14.4361 20.5885H14.011H13.9578C13.9047 20.1629 13.8515 19.7905 13.7984 19.3649H14.5955L14.4361 19.9501L14.7018 20.2161ZM15.5521 18.4605L15.6052 17.9285L15.9241 17.7689L16.4555 17.8753L16.5618 17.9817C16.5086 18.2477 16.5086 18.5669 16.4555 18.8861H15.8178L15.5521 18.4605ZM18.1561 20.3757L18.2623 20.3225L18.5812 20.5885L18.4218 20.6949L18.7938 20.9609V20.6949L19.0063 20.3757L19.2189 20.5885L19.4315 20.9077L19.0595 21.0141L19.2189 21.3865L19.4846 21.2269L19.4315 21.1205L19.644 20.9609L19.7503 20.3757C19.9098 20.6949 20.1223 21.0141 20.3349 21.2801L18.5281 23.0889C17.6778 22.1845 17.0932 20.9609 16.9338 19.6309L17.3058 20.0565H17.6778L18.1561 20.3757ZM16.2961 12.8213L18.1029 14.6301C17.7309 15.0557 17.4121 15.5345 17.1464 16.0133H17.0401L16.7744 16.1197H16.6681L16.4024 16.3857L16.7744 16.3325L17.0932 16.2793C17.0932 16.3325 17.0401 16.3325 17.0401 16.3857L16.7212 16.4921H16.6149L16.1898 16.8113L15.8178 16.7581L15.2332 17.8221L15.3395 18.0349L15.0207 18.3541L14.9675 18.7797H13.7984C13.9047 16.4921 14.8081 14.3641 16.2961 12.8213ZM13.9047 26.6534L14.4892 26.9726L14.5955 27.079L14.1704 27.5046C13.9578 27.2918 13.7984 27.079 13.5858 26.8662L13.9047 26.6534ZM13.3732 19.3649C13.3732 19.6309 13.4264 19.8437 13.4264 20.1097L13.1075 20.1629L13.0544 20.4821L12.4167 21.3333V22.5037L11.7258 22.7165H11.3538C11.035 21.6525 10.8224 20.5353 10.7693 19.3649H13.3732ZM10.7693 22.7165L10.6098 22.6633L10.4504 22.5037L9.70642 22.4505L9.91899 22.7697L9.22814 22.6633L9.38757 22.5037L9.22814 22.3441L8.74986 22.5569L8.59043 22.8761L8.64357 23.6209L9.22814 24.951L9.49385 25.3766L9.65328 25.4298L9.22814 24.6318L9.12185 24.2062L9.22814 24.0997L9.175 23.8869L9.44071 23.9401L9.81271 24.5254L9.91899 24.5786V24.153L10.0784 24.2593L10.1316 24.4722L10.5567 24.5786L10.7161 24.4722L10.7693 24.5254V24.8446L10.9287 25.0574L11.1413 25.1106L11.6195 25.9086L11.8853 26.015L11.9915 25.6426C12.523 26.4938 13.1075 27.2386 13.7984 27.9302L11.9915 29.739C9.38757 27.079 7.68701 23.4081 7.63387 19.4181H10.2378C10.291 20.5353 10.4504 21.6525 10.7693 22.7165ZM11.8853 8.40565L13.6921 10.2145C11.5664 12.4489 10.2378 15.4813 10.1847 18.7797H7.58072C7.68701 14.7897 9.28128 11.1189 11.8853 8.40565ZM30.6977 7.44805L30.5382 7.18204L30.2194 7.02244L29.9537 7.23524L30.2725 7.39485L30.6445 7.66085L30.6977 7.44805ZM29.1034 14.7897V15.0025L29.5285 14.8429L29.688 14.5769L29.3691 14.1513L29.5285 13.8853L29.9537 14.2045L30.0068 14.1513L29.9005 14.0981L29.7942 13.9385L29.9537 13.8321L29.7942 13.6193L29.4223 13.8321L29.2628 14.0449L29.2097 14.2577L29.3691 14.5237L29.316 14.6833L29.1034 14.7897ZM10.3441 26.4406L10.3973 26.3342L10.1847 25.8022L9.91899 25.6958L10.3441 26.4406ZM20.9726 16.6517C20.9726 17.0773 21.2383 17.3965 21.7166 17.6625C21.7166 17.6625 21.7166 17.6093 21.7166 17.4497L21.3977 17.1305L21.5572 16.8645L21.6635 16.8113C21.6635 16.2793 21.6635 15.7473 21.6635 15.6409C21.1852 15.9601 20.9726 16.2261 20.9726 16.6517ZM23.8954 26.9194C24.9051 27.4514 25.9149 28.1962 25.7554 30.005C25.4366 28.941 24.6926 28.3558 23.8954 27.9302C23.8423 27.9302 23.8954 26.9194 23.8954 26.9194ZM24.108 14.3641C23.9486 14.4173 23.736 14.4705 23.5766 14.4705C23.0983 14.5769 22.5669 14.7365 22.1417 14.8429C21.9292 14.8961 21.7697 14.9493 21.6103 15.0557C20.8663 15.3749 20.388 15.8537 20.388 16.6517C20.388 17.4497 20.9195 17.9285 21.6635 18.2477C21.6635 18.8861 21.6635 19.5245 21.7166 20.1629C20.016 19.6309 18.2623 18.8329 18.2623 16.5985C18.2623 14.3641 19.8035 13.5129 21.6103 12.9809C21.7697 12.9277 21.9823 12.8745 22.1417 12.8213C22.62 12.6617 23.1514 12.5553 23.6297 12.4489C23.7892 12.3957 24.0017 12.3425 24.1612 12.2893C25.7554 11.8637 27.084 11.2785 27.084 9.73566C27.084 8.77805 26.4994 7.82045 24.7989 7.39485C24.6926 7.39485 24.5331 7.34165 24.2674 7.34165C24.2674 7.18204 24.2674 6.54364 24.2674 6.38404C24.2674 6.38404 24.2674 5.79884 24.2674 5.58603C24.5863 5.58603 24.9583 5.63923 25.1709 5.69244C28.0405 6.33084 29.2097 8.13965 29.2097 9.73566C29.2628 13.0341 26.5526 13.7789 24.108 14.3641ZM21.8229 23.6741C21.9823 23.5677 22.1949 23.5145 22.3543 23.4613C22.7263 23.3549 23.0983 23.1953 23.4172 23.0889C23.4703 23.0889 23.7892 22.9825 23.9486 22.9293C24.3737 22.7697 25.0114 22.4505 25.0114 21.8653C25.0114 21.3865 24.6394 21.1205 24.0017 20.9077C24.0017 20.3757 24.0017 19.6309 24.0549 19.1521C25.4897 19.6309 26.7651 20.3225 26.7651 21.9185C26.7651 23.5145 25.224 24.0465 23.9486 24.419C23.7892 24.4722 23.5766 24.5254 23.4172 24.6318C22.992 24.7914 22.6732 24.8978 22.3543 25.0042C22.1417 25.1106 21.876 25.2702 21.876 25.5362C21.876 25.5362 21.876 26.9194 21.9292 27.079C21.2915 26.7066 20.6006 26.2278 20.6006 25.3234C20.5475 24.4722 21.1852 23.9933 21.8229 23.6741ZM21.4509 5.85204C20.6006 6.11804 20.0692 6.43724 19.8566 6.49044C19.2721 6.70324 18.4749 6.70324 17.6778 7.60765C17.5184 7.76725 17.1995 8.19285 16.9338 8.56525C16.6681 8.93766 16.6681 9.52286 16.5086 9.78886C16.2429 10.2145 16.2961 10.4805 16.2961 10.4805C16.2961 10.5337 16.2429 10.7997 15.9772 11.0657C15.7115 11.3849 15.3395 11.5445 14.9144 11.4913C15.2864 11.7041 15.8178 11.4381 15.8178 11.4381C15.8178 11.4381 15.7115 11.7041 15.6052 12.1829C16.0304 11.2253 16.4024 10.9061 16.5086 10.7997C16.6681 10.8529 17.0401 10.7997 17.7841 10.4273C18.5812 10.0017 19.7503 9.25686 20.0692 8.77805C20.4412 8.29925 20.9195 7.92685 21.4509 7.71405C21.504 7.02244 21.4509 6.38404 21.4509 5.85204ZM18.0498 8.99086L17.6246 9.09726L18.2092 8.19285H18.7938L18.0498 8.99086ZM23.364 25.0574C23.364 25.0574 23.2046 32.399 23.2046 32.5054C23.2046 33.9418 22.4606 33.9418 22.4606 32.5054C22.4606 32.3458 22.3543 25.483 22.3543 25.483C22.3543 25.4298 22.5137 25.3766 22.6732 25.3234C22.7795 25.2702 22.992 25.217 23.0452 25.1638C23.2046 25.1106 23.364 25.0574 23.364 25.0574ZM22.1949 15.4813C22.5669 15.3217 23.0452 15.2153 23.5766 15.0557C23.5766 16.1197 23.4172 22.1313 23.4172 22.5569C23.2577 22.6101 23.1514 22.6633 22.992 22.7165C22.7794 22.7697 22.5669 22.8229 22.3543 22.9293C22.3543 22.2377 22.1949 16.2793 22.1949 15.4813ZM23.8423 3.99002C23.8423 4.04322 23.6829 10.4805 23.6829 11.9701C23.4703 12.0233 23.3109 12.0765 23.0983 12.1297C22.7794 12.1829 22.5137 12.2893 22.1949 12.3425C22.1417 10.7997 21.9823 4.04322 21.9823 3.99002C21.7697 2.97922 20.9195 0 22.9389 0C25.0114 0 23.9486 2.92602 23.8423 3.99002ZM55.9934 9.57606L54.2397 18.9393H51.9015L49.7226 7.50125H51.5826L53.1238 16.3325H53.1769L54.8243 7.50125H57.2689L58.8631 16.3325H58.9163L60.5106 7.50125H62.3174L60.0854 18.9393H57.694L55.9934 9.57606ZM65.5591 10.3741C67.2065 10.3741 69.0665 11.2785 69.0665 14.7365C69.0665 18.2477 67.2065 19.0989 65.5591 19.0989C63.9117 19.0989 61.9985 18.3009 61.9985 14.7365C61.9985 11.2785 63.9117 10.3741 65.5591 10.3741ZM65.5591 17.6093C66.7814 17.6093 67.1002 16.1197 67.1002 14.6833C67.1002 13.3001 66.8345 11.8105 65.5591 11.8105C64.3368 11.8105 64.018 13.3001 64.018 14.6833C64.018 16.1197 64.2837 17.6093 65.5591 17.6093ZM70.2888 11.9169C70.2888 11.3849 70.2888 10.9061 70.2356 10.5337H71.9893C71.9893 11.0657 72.0424 11.5445 72.0424 12.0765H72.0956C72.3082 11.4381 72.9459 10.4273 74.115 10.4273C74.2213 10.4273 74.3276 10.4805 74.4339 10.4805V12.3957C74.2744 12.3425 74.115 12.2893 73.9024 12.2893C73.1053 12.2893 72.255 12.8213 72.255 14.3641V18.9925H70.3419V11.9169H70.2888ZM75.6561 6.65004H77.5693V18.9393H75.6561V6.65004ZM85.6469 6.65004V17.5029C85.6469 18.0881 85.6469 18.6201 85.7001 18.9393H83.8932C83.8401 18.6733 83.8401 18.1945 83.8401 17.6093H83.7869C83.4681 18.3541 82.8835 19.0457 81.6612 19.0457C79.6418 19.0457 78.8447 17.0241 78.8447 14.6833C78.8447 11.9169 79.9075 10.3209 81.6081 10.3209C82.7772 10.3209 83.4149 11.0125 83.6806 11.6509H83.7338V6.59684H85.6469V6.65004ZM82.1395 17.5561C83.2555 17.5561 83.6806 16.2793 83.6806 14.6833C83.6806 13.0341 83.2555 11.8637 82.1926 11.8637C81.1298 11.8637 80.7578 12.9809 80.7578 14.6301C80.7578 16.5985 81.0235 17.5561 82.1395 17.5561ZM91.9708 7.50125H93.9903V12.1297H97.232V7.50125H99.2514V18.9393H97.232V13.8853H93.9903V18.9393H91.9708V7.50125ZM106.585 18.5137C106.16 18.6733 105.363 19.0457 104.194 19.0457C101.59 19.0457 100.474 17.0773 100.474 14.8429C100.474 12.3425 101.749 10.3741 103.768 10.3741C105.522 10.3741 106.957 11.4381 106.957 14.8961V15.2685H102.334C102.334 16.7049 102.865 17.5561 104.353 17.5561C105.522 17.5561 106.107 17.1837 106.479 16.9177L106.585 18.5137ZM105.15 13.9917C105.15 12.5021 104.672 11.7573 103.822 11.7573C102.812 11.7573 102.387 12.8745 102.387 13.9917H105.15ZM108.711 11.0125C109.242 10.7465 110.039 10.3741 111.262 10.3741C113.759 10.3741 114.344 11.6509 114.344 13.7789V17.4497C114.344 18.0349 114.397 18.6201 114.45 18.9393H112.696C112.59 18.6201 112.59 18.1945 112.59 17.7689H112.537C112.059 18.4605 111.421 19.0457 110.305 19.0457C109.083 19.0457 107.914 18.1413 107.914 16.5985C107.914 14.3109 109.667 13.7257 112.112 13.7257H112.484V13.4065C112.484 12.5553 112.112 11.8105 110.996 11.8105C110.039 11.8105 109.189 12.2893 108.817 12.6085L108.711 11.0125ZM112.537 14.7897H112.378C110.73 14.7897 109.72 15.1621 109.72 16.3857C109.72 17.1305 110.199 17.6625 110.943 17.6625C112.112 17.6625 112.537 16.7581 112.537 15.2685V14.7897ZM116.204 6.65004H118.117V18.9393H116.204V6.65004ZM120.561 8.77805L122.475 8.13965V10.4805H124.069V11.9701H122.475V16.3325C122.475 17.2369 122.793 17.5029 123.325 17.5029C123.644 17.5029 123.909 17.3965 124.069 17.3433V18.7797C123.75 18.9393 123.378 19.0457 122.793 19.0457C121.359 19.0457 120.561 18.3541 120.561 16.5985V11.9701H119.286V10.4805H120.561V8.77805ZM125.132 6.65004H127.045V11.5977H127.098C127.417 11.0657 127.895 10.3741 129.117 10.3741C130.924 10.3741 131.509 11.8105 131.509 13.5129V18.9393H129.596V13.8853C129.596 12.6085 129.277 12.0765 128.48 12.0765C127.47 12.0765 127.098 12.9809 127.098 14.0449V18.9393H125.185V6.65004H125.132ZM53.974 21.9717C56.2592 21.9717 58.2786 23.7273 58.2786 27.8238C58.2786 31.9202 56.206 33.6758 53.974 33.6758C51.7421 33.6758 49.6695 31.9202 49.6695 27.8238C49.6164 23.7273 51.6889 21.9717 53.974 21.9717ZM53.974 32.133C55.2495 32.133 56.2592 31.0158 56.2592 27.877C56.2592 24.7382 55.2495 23.6209 53.974 23.6209C52.6986 23.6209 51.6889 24.7382 51.6889 27.877C51.6889 31.0158 52.6986 32.133 53.974 32.133ZM59.6071 26.547C59.6071 26.015 59.6071 25.5362 59.554 25.1638H61.3077C61.3077 25.6958 61.3608 26.1746 61.3608 26.7066H61.414C61.6265 26.0682 62.2643 25.0574 63.4334 25.0574C63.5397 25.0574 63.646 25.1106 63.7522 25.1106V27.0258C63.5928 26.9726 63.4334 26.9194 63.2208 26.9194C62.4237 26.9194 61.5734 27.4514 61.5734 28.9942V33.6226H59.6071V26.547ZM64.9214 34.8994C65.3465 35.1654 66.2499 35.6442 67.3128 35.6442C69.1196 35.6442 69.4385 34.3142 69.4385 32.9842V32.1862H69.3853C69.0665 32.8246 68.5351 33.6226 67.2596 33.6226C66.1436 33.6226 64.4431 32.8246 64.4431 29.4198C64.4431 27.079 65.2402 25.0574 67.3659 25.0574C68.5351 25.0574 69.0665 25.749 69.4916 26.4938H69.5448C69.5448 26.0682 69.5979 25.6426 69.5979 25.1638H71.3516C71.2985 25.5894 71.2985 26.0682 71.2985 26.4938V32.7182C71.2985 35.3782 70.5545 37.2402 67.5785 37.2402C66.3031 37.2402 65.2934 36.921 64.8151 36.7082L64.9214 34.8994ZM67.9505 32.0798C69.1728 32.0798 69.651 31.1754 69.651 29.2602C69.651 27.5046 69.0133 26.547 68.1099 26.547C67.1002 26.547 66.7282 27.5578 66.7282 29.2602C66.6751 31.2286 67.2596 32.0798 67.9505 32.0798ZM73.371 25.6426C73.9024 25.3766 74.6996 25.0042 75.9218 25.0042C78.4195 25.0042 79.0041 26.281 79.0041 28.409V32.0798C79.0041 32.665 79.0573 33.2502 79.1104 33.5694H77.3567C77.2504 33.2502 77.2504 32.8246 77.2504 32.399H77.1973C76.719 33.0906 76.0813 33.6758 74.9653 33.6758C73.743 33.6758 72.5739 32.7714 72.5739 31.2286C72.5739 28.941 74.3276 28.3558 76.7721 28.3558H77.1441V28.0366C77.1441 27.1854 76.7721 26.4406 75.6561 26.4406C74.6996 26.4406 73.8493 26.9194 73.4773 27.2386L73.371 25.6426ZM77.1441 29.4198H76.9847C75.3373 29.4198 74.3276 29.7922 74.3276 31.0158C74.3276 31.7606 74.8059 32.2926 75.5499 32.2926C76.719 32.2926 77.1441 31.3882 77.1441 29.8986V29.4198ZM80.9172 26.547C80.9172 26.015 80.9172 25.5362 80.8641 25.1638H82.6709C82.6709 25.5894 82.7241 26.015 82.7241 26.4406H82.7772C83.0429 25.9086 83.6275 25.0042 84.9029 25.0042C86.7098 25.0042 87.2943 26.4406 87.2943 28.143V33.5694H85.3812V28.5154C85.3812 27.2386 85.0623 26.7066 84.2652 26.7066C83.2555 26.7066 82.8835 27.611 82.8835 28.675V33.5694H80.9704V26.547H80.9172ZM88.9949 21.5461H91.0143V23.5677H88.9949V21.5461ZM89.048 25.1106H90.9612V33.5162H89.048V25.1106ZM92.768 31.8138L96.1691 26.6534H92.8743V25.1106H98.1354V26.8662L94.7874 32.0266H98.2417V33.5694H92.768V31.8138ZM100.049 25.6426C100.58 25.3766 101.377 25.0042 102.599 25.0042C105.097 25.0042 105.682 26.281 105.682 28.409V32.0798C105.682 32.665 105.735 33.2502 105.788 33.5694H104.034C103.928 33.2502 103.928 32.8246 103.928 32.399H103.875C103.396 33.0906 102.812 33.6758 101.643 33.6758C100.421 33.6758 99.2514 32.7714 99.2514 31.2286C99.2514 28.941 101.005 28.3558 103.45 28.3558H103.822V28.0366C103.822 27.1854 103.45 26.4406 102.334 26.4406C101.377 26.4406 100.527 26.9194 100.155 27.2386L100.049 25.6426ZM103.875 29.4198H103.715C102.068 29.4198 101.058 29.7922 101.058 31.0158C101.058 31.7606 101.536 32.2926 102.28 32.2926C103.45 32.2926 103.875 31.3882 103.875 29.8986V29.4198ZM107.86 23.4081L109.774 22.7697V25.1106H111.368V26.6002H109.774V30.9626C109.774 31.867 110.092 32.133 110.624 32.133C110.943 32.133 111.208 32.0266 111.368 31.9734V33.4098C111.049 33.5694 110.677 33.6758 110.092 33.6758C108.658 33.6758 107.86 32.9842 107.86 31.2286V26.6002H106.585V25.1106H107.86V23.4081ZM112.75 21.5461H114.769V23.5677H112.75V21.5461ZM112.962 25.1106H114.875V33.5162H112.962V25.1106ZM119.924 25.0042C121.571 25.0042 123.431 25.9086 123.431 29.3666C123.431 32.8778 121.571 33.729 119.924 33.729C118.276 33.729 116.363 32.931 116.363 29.3666C116.416 25.9086 118.276 25.0042 119.924 25.0042ZM119.924 32.2394C121.146 32.2394 121.465 30.7498 121.465 29.3134C121.465 27.9302 121.199 26.4406 119.924 26.4406C118.701 26.4406 118.383 27.9302 118.383 29.3134C118.383 30.7498 118.701 32.2394 119.924 32.2394ZM125.132 26.547C125.132 26.015 125.132 25.5362 125.079 25.1638H126.885C126.885 25.5894 126.939 26.015 126.939 26.4406H126.992C127.257 25.9086 127.842 25.0042 129.117 25.0042C130.924 25.0042 131.509 26.4406 131.509 28.143V33.5694H129.596V28.5154C129.596 27.2386 129.277 26.7066 128.48 26.7066C127.47 26.7066 127.098 27.611 127.098 28.675V33.5694H125.185V26.547H125.132ZM8.803 50.6467L12.0978 60.808H10.7693L9.97213 58.148H6.09274L5.2956 60.808H4.02018L7.4213 50.6467H8.803ZM9.60014 57.0308L8.05901 51.9767L6.46473 57.0308H9.60014ZM13.6921 54.3175H12.523V53.3067H13.6921V51.6575C13.6921 50.4339 14.2235 49.6359 15.5521 49.6359C15.8709 49.6359 16.2429 49.6891 16.5086 49.7423V50.8063C16.3492 50.6999 16.0835 50.6467 15.8178 50.6467C15.1269 50.6467 14.9144 51.0191 14.9144 51.7639V53.3067H16.2429V54.3175H14.9144V60.7548H13.6921V54.3175ZM17.2526 54.9559C17.2526 54.4239 17.1995 53.8919 17.1995 53.3599H18.3686L18.4218 54.5303H18.4749C18.8469 53.6259 19.4846 53.2535 20.6006 53.2535V54.4771C20.4412 54.4239 20.2818 54.4239 20.1223 54.4239C19.1658 54.4239 18.5281 55.2219 18.5281 56.8712V60.808H17.3058V54.9559H17.2526ZM22.9389 50.3275V51.7639H21.6103V50.3275H22.9389ZM21.6635 53.3599H22.8857V60.7548H21.6635V53.3599ZM29.2097 54.6367C28.7845 54.4239 28.3594 54.2643 27.828 54.2643C26.6588 54.2643 25.8086 55.1155 25.8086 57.084C25.8086 58.7864 26.6057 59.7972 27.828 59.7972C28.4125 59.7972 28.8908 59.6376 29.316 59.4248L29.3691 60.542C28.9971 60.7016 28.3594 60.8612 27.828 60.8612C25.596 60.8612 24.5331 59.212 24.5331 57.1372C24.5331 54.7431 25.7554 53.2535 27.828 53.2535C28.3594 53.2535 28.8908 53.3599 29.316 53.5195L29.2097 54.6367ZM30.804 53.8387C31.3885 53.4663 32.1857 53.2535 32.8765 53.2535C33.9394 53.2535 34.6302 53.7323 34.8428 53.9451C35.1616 54.2643 35.4805 54.6899 35.4805 55.7539V59.6376C35.4805 60.0632 35.5336 60.4888 35.5336 60.7548H34.4176L34.3645 59.744H34.3114C33.9925 60.3292 33.3548 60.8612 32.2388 60.8612C31.0165 60.8612 30.1131 60.1696 30.1131 58.7332C30.1131 57.2968 31.0697 56.2327 33.6205 56.2327H34.3114V55.9135C34.3114 55.3815 34.2582 55.0623 34.0456 54.7431C33.7799 54.4239 33.3016 54.2643 32.8234 54.2643C32.0794 54.2643 31.3354 54.5835 30.9102 55.0091L30.804 53.8387ZM34.3645 57.1372C34.1519 57.084 33.8331 57.084 33.5142 57.084C32.0794 57.084 31.3885 57.7756 31.3885 58.6268C31.3885 59.4248 31.8137 59.9036 32.6108 59.9036C33.6736 59.9036 34.3645 59.0524 34.3645 58.0416V57.1372ZM37.2873 54.9559C37.2873 54.4239 37.2342 53.8919 37.2342 53.3599H38.4033L38.4565 54.4771H38.5096C38.8816 53.6259 39.5193 53.2535 40.3696 53.2535C41.645 53.2535 42.5484 53.9983 42.5484 55.6475V60.808H41.3261V56.0199C41.3261 54.8495 40.901 54.3175 40.1039 54.3175C39.1473 54.3175 38.5627 55.0091 38.5627 56.3391V60.808H37.2873V54.9559ZM48.0752 50.6467H50.6792C51.7421 50.6467 52.3266 50.9127 52.8049 51.3383C53.3363 51.8171 53.5489 52.5087 53.5489 53.2535C53.5489 54.3175 53.0175 55.3815 51.5295 55.7007V55.7539C52.1141 55.8603 52.4329 56.1795 52.6455 56.7647L54.0803 60.808H52.6986L51.5295 57.4032C51.2638 56.5519 50.8918 56.2327 49.9352 56.2327H49.3506V60.808H48.0752V50.6467ZM49.3506 55.1155H50.3604C51.7421 55.1155 52.2735 54.2111 52.2735 53.3067C52.2735 52.1895 51.5295 51.6575 50.4135 51.6575H49.4038V55.1155H49.3506ZM56.3123 57.4032C56.3123 59.1056 57.0032 59.9036 58.3317 59.9036C58.9163 59.9036 59.6071 59.5844 60.0323 59.3184L60.0854 60.4356C59.5009 60.7016 58.7569 60.8612 58.0129 60.8612C56.0466 60.8612 55.0369 59.3716 55.0369 57.0308C55.0369 54.6899 56.0466 53.2003 57.9066 53.2003C59.554 53.2003 60.5106 54.5303 60.5106 56.7115V57.35H56.3123V57.4032ZM59.2883 56.4987C59.2883 54.9559 58.81 54.2111 57.8534 54.2111C57.0563 54.2111 56.3654 54.7963 56.3654 56.4987H59.2883ZM67.2596 61.074C67.2596 63.1488 65.7185 64 64.0711 64C63.4334 64 62.4237 63.7872 61.8923 63.5744L61.9454 62.3508C62.4768 62.7232 63.3271 62.9892 63.9648 62.9892C65.4528 62.9892 66.0374 62.0848 66.0374 60.808V59.6376H65.9842C65.5059 60.4888 64.8682 60.8612 64.018 60.8612C62.4768 60.8612 61.4671 59.6376 61.4671 57.0308C61.4671 54.4771 62.4768 53.2003 64.1774 53.2003C64.9214 53.2003 65.5591 53.6791 65.9842 54.3707H66.0374L66.0905 53.3067H67.2596C67.2596 53.7323 67.2065 54.2111 67.2065 54.6367V61.074H67.2596ZM64.3899 59.9036C65.5059 59.9036 66.0374 58.946 66.0374 57.084C66.0374 55.2219 65.5059 54.2643 64.3899 54.2643C63.274 54.2643 62.7425 55.2219 62.7425 57.084C62.7425 58.946 63.274 59.9036 64.3899 59.9036ZM70.3419 50.3275V51.7639H69.0133V50.3275H70.3419ZM69.0665 53.3599H70.2888V60.7548H69.0665V53.3599ZM74.8059 53.2535C76.7721 53.2535 77.7818 54.7431 77.7818 57.084C77.7818 59.4248 76.7721 60.9144 74.8059 60.9144C72.8396 60.9144 71.8299 59.4248 71.8299 57.084C71.8299 54.7431 72.8396 53.2535 74.8059 53.2535ZM74.8059 59.9036C75.975 59.9036 76.5064 58.946 76.5064 57.084C76.5064 55.2219 75.975 54.2643 74.8059 54.2643C73.6367 54.2643 73.1053 55.2219 73.1053 57.084C73.1053 58.946 73.6367 59.9036 74.8059 59.9036ZM79.2167 54.9559C79.2167 54.4239 79.1635 53.8919 79.1635 53.3599H80.3327L80.3858 54.4771H80.4389C80.811 53.6259 81.4487 53.2535 82.2989 53.2535C83.5744 53.2535 84.4778 53.9983 84.4778 55.6475V60.808H83.2555V56.0199C83.2555 54.8495 82.8304 54.3175 82.0332 54.3175C81.0767 54.3175 80.4389 55.0091 80.4389 56.3391V60.808H79.2167V54.9559ZM131.456 45.3267H4.33904V44.6883H131.456V45.3267Z" fill="#009ADE"/>
</svg>
