<svg width="125" height="96" viewBox="0 0 125 96" fill="none" xmlns="http://www.w3.org/2000/svg">
<g clip-path="url(#clip0_2805_974)">
<path d="M120.262 95.9999H1.19426C0.537416 95.9999 0 95.4616 0 94.8037C0 94.1457 0.537416 93.6074 1.19426 93.6074H120.262C120.919 93.6074 121.456 94.1457 121.456 94.8037C121.456 95.4616 120.919 95.9999 120.262 95.9999Z" fill="url(#paint0_linear_2805_974)"/>
<path d="M11.9426 25.5801L7.72289 14.4349H4.83676V25.5801H1.73169V0.598145H8.18068C11.8033 0.598145 14.8685 2.47229 14.8685 7.41684C14.8685 12.3614 12.5795 13.4181 10.6687 13.8368L15.3263 25.5801H11.9426ZM7.68308 3.28973H4.83676V11.9626H7.76269C10.1512 11.9626 11.7436 10.3676 11.7436 7.5564C11.7436 4.74519 9.69341 3.28973 7.68308 3.28973Z" fill="white"/>
<path d="M18.3518 25.5801V0.598145H28.8414V3.4293H21.4171V11.3047H28.3637V13.9564H21.4171V22.7489H29.1997V25.6H18.3518V25.5801Z" fill="white"/>
<path d="M46.4965 2.99065L44.5259 5.14393C43.5108 3.62866 42.0976 2.89097 40.5053 2.89097C36.7035 2.89097 34.9122 7.57632 34.9122 13.0592C34.9122 18.5421 36.8429 23.1875 40.764 23.1875C44.6852 23.1875 43.1326 22.8685 43.7497 22.3502V14.6143H40.4655V11.8629H46.8149V24.0449C45.3619 25.2411 43.471 26.0586 40.6844 26.0586C34.9719 26.0586 31.5682 20.8748 31.5682 13.0791C31.5682 5.28349 34.8325 0 40.3659 0C45.8993 0 45.1231 0.996885 46.4965 2.99065Z" fill="white"/>
<path d="M50.9949 25.5801V0.598145H54.1597V25.5801H50.9949Z" fill="white"/>
<path d="M66.4207 26.1782C61.0664 26.1782 57.8618 20.8947 57.8618 13.0592C57.8618 5.22368 60.9669 0 66.4207 0C71.8744 0 74.9397 5.22368 74.9397 13.0592C74.9397 20.8947 71.7351 26.1782 66.4207 26.1782ZM66.4207 2.85109C62.9374 2.85109 61.2057 7.37695 61.2057 13.0393C61.2057 18.7016 62.9374 23.2274 66.4207 23.2274C69.9039 23.2274 71.5958 18.7016 71.5958 13.0393C71.5958 7.37695 69.8044 2.85109 66.4207 2.85109Z" fill="white"/>
<path d="M89.649 25.5801L81.6873 6.20064H81.5878V25.5801H78.6619V0.598145H82.4636L90.3258 19.9975H90.4253V0.598145H93.3512V25.5801H89.649Z" fill="white"/>
<path d="M108.936 25.5801L107.523 19.7184H100.298L98.8449 25.5801H95.6403L101.91 0.598145H106.11L112.24 25.5801H108.936ZM104.04 3.56886H103.901L100.736 17.2262H107.105L104.04 3.56886Z" fill="white"/>
<path d="M114.589 25.5801V0.598145H117.754V22.6094H124.8V25.5801H114.589Z" fill="white"/>
<path d="M13.5947 56.0449V44.501H4.89647V56.0449H1.73169V31.063H4.89647V41.6898H13.5947V31.063H16.7594V56.0449H13.5947Z" fill="white"/>
<path d="M21.1981 56.0449V31.063H31.6877V33.8941H24.2634V41.7695H31.21V44.4212H24.2634V53.2138H32.046V56.0649H21.1981V56.0449Z" fill="white"/>
<path d="M47.014 56.0449L45.6008 50.1832H38.3755L36.9225 56.0449H33.7179L39.9878 31.063H44.1876L50.3181 56.0449H47.014ZM42.1175 34.0337H41.9782L38.8134 47.691H45.1828L42.1175 34.0337Z" fill="white"/>
<path d="M52.6667 56.0449V31.063H55.8315V53.0742H62.8777V56.0449H52.6667Z" fill="white"/>
<path d="M69.3864 33.7944V56.0648H66.2415V33.7944H61.4844V31.0829H74.1236V33.7944H69.3665H69.3864Z" fill="white"/>
<path d="M88.7533 56.0449V44.501H80.0552V56.0449H76.8904V31.063H80.0552V41.6898H88.7533V31.063H91.9181V56.0449H88.7533Z" fill="white"/>
<path d="M7.42432 86.5295H1.73169V61.5476H7.46413C13.3558 61.5476 16.7992 65.9937 16.7992 74.0685C16.7992 82.1432 13.316 86.5295 7.42432 86.5295ZM7.42432 64.3389H4.85667V83.7383H7.42432C10.9474 83.7383 13.6146 80.5682 13.6146 74.0685C13.6146 67.5688 10.9474 64.3389 7.42432 64.3389Z" fill="white"/>
<path d="M30.6128 86.5295L29.1996 80.6679H21.9744L20.5214 86.5295H17.3168L23.5866 61.5476H27.7864L33.917 86.5295H30.6128ZM25.7164 64.5183H25.5771L22.4123 78.1756H28.7817L25.7164 64.5183Z" fill="white"/>
<path d="M40.3261 64.2591V86.5295H37.1812V64.2591H32.4241V61.5476H45.0633V64.2591H40.3062H40.3261Z" fill="white"/>
<path d="M56.7073 86.5295L55.2941 80.6679H48.0689L46.6158 86.5295H43.4113L49.6811 61.5476H53.8809L60.0114 86.5295H56.7073ZM51.8109 64.5183H51.6715L48.5068 78.1756H54.8761L51.8109 64.5183Z" fill="white"/>
<path d="M79.5774 86.5295V74.9856H70.8793V86.5295H67.7145V61.5476H70.8793V72.1744H79.5774V61.5476H82.7422V86.5295H79.5774Z" fill="white"/>
<path d="M94.5455 87.1277C89.0519 87.1277 87.1809 83.0006 87.1809 77.9563V61.5476H90.3457V77.6373C90.3457 80.9869 91.2215 84.1968 94.6052 84.1968C97.9889 84.1968 98.8249 80.9869 98.8249 77.6373V61.5476H101.99V77.9563C101.99 83.0006 100.059 87.1277 94.5256 87.1277H94.5455Z" fill="white"/>
<path d="M115.684 73.4105C117.515 73.7694 119.943 75.6236 119.943 79.651C119.943 83.6784 116.181 86.5295 113.176 86.5295H106.448V61.5476H112.439C115.286 61.5476 119.087 62.7837 119.087 67.7283C119.087 72.6728 117.435 72.6728 115.664 73.3308V73.4105H115.684ZM112.081 64.2193H109.434V72.2541H112.141C114.052 72.2541 116.122 71.1177 116.122 68.1869C116.122 65.256 114.111 64.1993 112.061 64.1993L112.081 64.2193ZM112.36 74.7862H109.434V83.8579H112.499C114.868 83.8579 116.798 82.5221 116.798 79.4517C116.798 76.3813 114.41 74.7862 112.36 74.7862Z" fill="white"/>
</g>
<defs>
<linearGradient id="paint0_linear_2805_974" x1="0" y1="94.8037" x2="121.456" y2="94.8037" gradientUnits="userSpaceOnUse">
<stop stop-color="#171B38"/>
<stop offset="0.8" stop-color="#009ADE"/>
<stop offset="1" stop-color="#80BC00"/>
</linearGradient>
<clipPath id="clip0_2805_974">
<rect width="124.8" height="96" fill="white"/>
</clipPath>
</defs>
</svg>
